<svg width="0" height="0" class="hidden">
  <symbol viewBox="0 0 65 64" xmlns="http://www.w3.org/2000/svg" id="a-icon-accurate">
    <title>F9D1FE0E-99B2-42B2-9928-E633C879F835</title>
    <g fill="#4D4949">
      <path d="M57 44.615v-16.64a.969.969 0 0 0-.963-.975.969.969 0 0 0-.962.975V43.64h-37.84l-1.145-.669a.934.934 0 0 0-.165-.076v-8.03a.969.969 0 0 0-.962-.975.969.969 0 0 0-.963.975v9.75c0 .54.431.975.963.975H41.35l-.542.952a.992.992 0 0 0 .262 1.272.965.965 0 0 0 1.405-.297l.77-1.351a.981.981 0 0 0 .125-.576h12.667a.969.969 0 0 0 .963-.975zM18.464 5.119c-.513-.245-1.167-.1-1.463.324l-.857 1.228c-.296.424-.12.965.392 1.21.169.08.353.119.534.119.37 0 .73-.159.93-.443l.856-1.228c.296-.423.12-.965-.392-1.21zm16.207 2.738c.14.097.292.143.442.143.306 0 .604-.192.768-.536.245-.512.1-1.167-.324-1.463l-1.228-.857c-.424-.296-.966-.121-1.21.392-.245.512-.1 1.167.324 1.463l1.228.858z"></path>
      <path d="M44 40.443l-.856 1.228c-.296.424-.12.965.392 1.21.169.08.353.119.534.119.37 0 .73-.159.93-.443l.856-1.228c.296-.423.12-.965-.392-1.21s-1.168-.1-1.463.324zm-5.33-29.586c.14.097.293.143.443.143.306 0 .604-.192.768-.536.245-.512.1-1.167-.324-1.463l-1.228-.857c-.424-.296-.966-.12-1.21.392-.245.512-.1 1.168.324 1.464l1.228.857zM44.557 12l-1.228-.856c-.424-.296-.966-.12-1.21.392-.245.512-.1 1.168.324 1.464l1.228.857c.14.097.292.143.442.143.306 0 .604-.192.768-.536.245-.512.1-1.167-.324-1.463zM26.33 48.144c-.425-.296-.966-.12-1.211.392-.245.512-.1 1.168.324 1.464l1.228.857c.14.097.292.143.442.143.306 0 .604-.192.768-.536.245-.512.1-1.167-.324-1.463l-1.228-.857zm12.669 2.3l-.858 1.229c-.27.386-.142.893.292 1.158.509.31 1.25.18 1.565-.271l.858-1.23c.296-.424.12-.966-.392-1.211-.513-.245-1.17-.1-1.465.325zM55 20.443l-.856 1.228c-.296.424-.12.966.391 1.21.17.081.354.119.536.119.37 0 .73-.159.928-.443l.857-1.228c.296-.424.12-.966-.392-1.21-.513-.245-1.168-.1-1.463.324zM21.33 45.144c-.425-.296-.966-.121-1.211.392-.245.512-.1 1.167.324 1.464l1.228.857c.14.097.292.143.442.143.306 0 .604-.192.768-.536.245-.512.1-1.167-.324-1.463l-1.228-.857zM49.557 15l-1.228-.856c-.423-.296-.965-.12-1.21.392s-.1 1.167.324 1.463l1.228.857a.77.77 0 0 0 .442.144c.306 0 .604-.192.768-.536.245-.512.1-1.167-.324-1.463zM30.33 51.144c-.425-.296-.967-.12-1.211.392-.245.512-.1 1.167.324 1.463l1.228.857c.14.097.292.144.442.144.306 0 .604-.192.768-.536.245-.512.1-1.168-.324-1.463l-1.228-.857zm5.41 3.383l-.508-.383c-.393-.296-.895-.12-1.122.392-.227.512-.092 1.167.3 1.463l1.139.857a.68.68 0 0 0 .41.144c.284 0 .56-.192.712-.536l.219-.495c.227-.512.092-1.167-.3-1.463a.663.663 0 0 0-.85.02zM2.557 35l-1.228-.856c-.424-.296-.966-.12-1.21.392-.245.512-.1 1.168.324 1.464l1.228.857c.14.097.292.143.442.143.306 0 .604-.192.768-.536.245-.512.1-1.167-.324-1.463zm1.907-4.881c-.513-.245-1.168-.1-1.463.325l-.857 1.228c-.296.425-.12.967.392 1.212.506.241 1.172.093 1.463-.325l.857-1.229c.296-.424.12-.966-.392-1.211zm4.072-7.235c.506.241 1.171.094 1.463-.325l.857-1.229c.296-.424.12-.966-.392-1.211-.512-.245-1.168-.1-1.463.325l-.857 1.228c-.296.424-.12.967.392 1.212zm2.794 17.26c-.425-.296-.967-.12-1.211.392-.245.512-.1 1.167.324 1.463l1.228.857c.14.097.292.144.442.144.306 0 .604-.192.768-.536.245-.512.1-1.167-.324-1.463l-1.228-.857zM5.536 27.883c.506.243 1.172.094 1.463-.324l.857-1.229c.296-.424.12-.966-.392-1.211-.512-.245-1.167-.1-1.463.325l-.857 1.228c-.296.424-.12.967.392 1.211zM7.113 40c.306 0 .604-.192.768-.536.245-.512.1-1.167-.324-1.463l-1.228-.857c-.424-.296-.966-.12-1.21.392-.245.512-.1 1.167.324 1.463l1.228.857a.77.77 0 0 0 .442.144zm3.423-22.116c.506.241 1.171.093 1.463-.325l.857-1.229c.296-.424.12-.966-.392-1.211-.512-.245-1.168-.1-1.463.325l-.857 1.228c-.296.425-.12.967.392 1.212zm42 9.997c.169.081.353.119.534.119.37 0 .731-.159.93-.443l.856-1.228c.296-.424.12-.966-.391-1.21-.513-.245-1.168-.1-1.464.324l-.857 1.228c-.296.424-.12.966.392 1.21zM52.443 19l1.228.856c.14.097.292.144.442.144.306 0 .604-.192.768-.536.245-.512.1-1.167-.324-1.463l-1.228-.858c-.424-.295-.966-.12-1.21.393-.245.512-.1 1.167.324 1.463zM50 30.443l-.856 1.228c-.296.423-.12.965.392 1.21.169.08.353.119.534.119.371 0 .731-.159.93-.443l.856-1.228c.296-.424.12-.966-.392-1.21-.512-.245-1.168-.1-1.463.324z"></path>
      <path d="M14.474 12.922a.925.925 0 0 0 .194.084V30.04c0 .53.424.96.947.96.524 0 .948-.43.948-.96V11.17a.97.97 0 0 0 0-.817V4.387h11.736a.94.94 0 0 0 .256.219l1.313.768a.937.937 0 0 0 1.294-.352.966.966 0 0 0 .115-.635h23.828V15.71c0 .53.424.96.947.96.524 0 .948-.43.948-.96V3.427c0-.53-.424-.96-.948-.96H26.127A.966.966 0 0 0 26 .897L24.687.128a.942.942 0 0 0-1.295.352.966.966 0 0 0 .347 1.31l1.158.677H21.53l.557-.977A.966.966 0 0 0 21.74.179a.941.941 0 0 0-1.294.35l-.759 1.33a.966.966 0 0 0-.118.608h-3.954a.954.954 0 0 0-.947.96v7.236l-.54.948a.966.966 0 0 0 .346 1.31zm32.062 24.959c.168.081.353.119.534.119.371 0 .73-.159.93-.443l.856-1.228c.296-.424.12-.965-.392-1.21s-1.168-.1-1.463.324l-.857 1.228c-.296.424-.12.966.392 1.21z"></path>
      <path d="M25 7a.946.946 0 0 0-.946.946v2.196a3.986 3.986 0 0 0-2.913 2.912h-2.195a.946.946 0 0 0 0 1.892h2.195a3.986 3.986 0 0 0 2.913 2.913v2.195a.946.946 0 0 0 1.892 0V17.86a3.987 3.987 0 0 0 2.913-2.913h2.195a.946.946 0 1 0 0-1.892H28.86a3.986 3.986 0 0 0-2.913-2.912V7.946A.946.946 0 0 0 25 7zm2.081 7A2.084 2.084 0 0 1 25 16.081 2.084 2.084 0 0 1 22.919 14c0-1.147.934-2.081 2.081-2.081 1.147 0 2.081.934 2.081 2.081zm36.963 17a.963.963 0 0 0-.955.97c0 16.591-13.291 30.089-29.628 30.089-9.586 0-18.507-4.673-24.077-12.553h5.727a.963.963 0 0 0 .956-.97.963.963 0 0 0-.956-.972H6.956a.963.963 0 0 0-.956.971v8.283c0 .536.428.97.956.97a.963.963 0 0 0 .956-.97v-6.066C13.846 59.072 23.302 64 33.462 64c8.424 0 16.344-3.332 22.3-9.381C61.72 48.569 65 40.526 65 31.971a.963.963 0 0 0-.956-.971z"></path>
    </g>
  </symbol>
  <symbol viewBox="0 0 18 11" xmlns="http://www.w3.org/2000/svg" id="a-icon-arrow">
    <title>FDA89D6B-E455-47FE-867A-07C92BE8573C</title>
    <path d="M9 9.204L1.322.658a.446.446 0 0 0-.68 0 .577.577 0 0 0 0 .757l8.02 8.927c.188.21.49.21.68 0l8.015-8.927a.571.571 0 0 0 0-.753.446.446 0 0 0-.68 0L9 9.204z" fill="#4D4949"></path>
  </symbol>
  <symbol viewBox="0 0 16 17" xmlns="http://www.w3.org/2000/svg" id="a-icon-attach">
    <title>A5B40C8D-0DAF-45A0-A6D4-92A008775348</title>
    <g fill="#FFF">
      <path d="M14.9 1.169a3.472 3.472 0 0 0-5.1 0L5.4 5.737a4.159 4.159 0 0 0 0 5.525c.1.107.3.213.4.32l1.5-1.595c-.1-.106-.3-.212-.4-.318-.6-.638-.6-1.7 0-2.338l4.4-4.675c.6-.637 1.6-.637 2.2 0 .6.638.6 1.7 0 2.338l-1.3 1.381c.4.85.5 1.806.4 2.656l2.3-2.444a3.825 3.825 0 0 0 0-5.418z"></path>
      <path d="M10.2 5.419L8.7 7.013s.3.212.4.318c.6.638.6 1.7 0 2.338l-4.4 4.675c-.6.637-1.6.637-2.2 0-.6-.638-.6-1.7 0-2.338l1.3-1.381c-.4-.85-.1-1.381-.4-2.656l-2.3 2.443c-1.4 1.488-1.4 3.932 0 5.42a3.472 3.472 0 0 0 5.1 0l4.4-4.676c1.4-1.487 1.4-3.931 0-5.419-.2-.106-.4-.318-.4-.318z"></path>
    </g>
  </symbol>
  <symbol viewBox="0 0 14 13" xmlns="http://www.w3.org/2000/svg" id="a-icon-comment">
    <title>10D91FEE-CD0F-41CA-BD51-7AD0C6DED2BC</title>
    <path d="M12.617.017L4.65 0c-.763 0-1.383.628-1.383 1.4v1.21l-1.883.003C.62 2.613 0 3.241 0 4.013v4.99c0 .773.62 1.4 1.384 1.4H2.8v2.36a.236.236 0 0 0 .233.237.233.233 0 0 0 .173-.077l2.264-2.52 3.88-.016c.763 0 1.383-.628 1.383-1.4v-.026l1.228 1.365a.233.233 0 0 0 .406-.158V7.807h.25c.762 0 1.383-.628 1.383-1.4v-4.99c0-.772-.62-1.4-1.383-1.4zm-2.35 8.97a.923.923 0 0 1-.918.927l-3.983.017a.232.232 0 0 0-.172.077l-1.927 2.145v-1.986a.235.235 0 0 0-.234-.236h-1.65a.923.923 0 0 1-.916-.927V4.013c0-.512.411-.928.917-.928L3.5 3.081l5.85-.012c.505 0 .917.416.917.927v4.991zm3.266-2.58a.923.923 0 0 1-.917.927h-.483a.235.235 0 0 0-.233.236v1.987l-1.167-1.299V3.996c0-.771-.62-1.4-1.384-1.4l-5.616.012V1.4c0-.512.412-.928.917-.928l7.966.016c.506 0 .918.417.918.928v4.99z"
      fill="#818181"></path>
  </symbol>
  <symbol viewBox="0 0 23 23" xmlns="http://www.w3.org/2000/svg" id="a-icon-dribbble">
    <title>B01B0F12-90E1-483F-8BA3-6912103B70DD</title>
    <path d="M11.5 0C5.168 0 0 5.168 0 11.5S5.168 23 11.5 23 23 17.832 23 11.5 17.832 0 11.5 0zm7.8 5.01a10.105 10.105 0 0 1 2.35 6.328c-1.8-.42-3.798-.449-5.833-.078-.53.097-1.06.22-1.586.367A32.205 32.205 0 0 0 13.035 8.8c2.425-.927 5.053-2.306 6.265-3.79zm-7.8-3.662c2.642 0 5.051 1.014 6.86 2.674-.706.962-2.716 2.362-5.94 3.57a29.29 29.29 0 0 0-4.035-5.755c.982-.317 2.029-.49 3.115-.49zM7.05 2.376a28.047 28.047 0 0 1 4.087 5.663C7.782 9.125 4.385 9.567 1.592 9.28A10.19 10.19 0 0 1 7.05 2.376zM1.348 11.5c0-.298.014-.593.039-.885.616.065 1.259.098 1.923.098 2.62 0 5.564-.504 8.455-1.461.441.903.838 1.832 1.188 2.783a18.84 18.84 0 0 0-3.254 1.534c-2.526 1.504-4.374 3.438-5.14 5.333A10.126 10.126 0 0 1 1.348 11.5zM11.5 21.652c-2.17 0-4.182-.684-5.834-1.848.513-1.73 2.245-3.602 4.722-5.077a17.45 17.45 0 0 1 3.005-1.409 31.574 31.574 0 0 1 1.423 7.778c-1.04.36-2.155.556-3.316.556zm4.63-1.118a32.615 32.615 0 0 0-1.458-7.62c2.184-.6 4.608-.802 6.908-.206a10.177 10.177 0 0 1-5.45 7.826z"
      fill="#4D4949"></path>
  </symbol>
  <symbol viewBox="0 0 14 23" xmlns="http://www.w3.org/2000/svg" id="a-icon-facebook">
    <title>95566742-670F-44B9-AA7D-74BD0CBEE631</title>
    <path d="M8.648 23h-3.95c-.66 0-1.197-.5-1.197-1.116v-8.307H1.196C.536 13.577 0 13.076 0 12.46V8.9c0-.615.537-1.116 1.196-1.116h2.305V6.003c0-1.768.595-3.272 1.721-4.349C6.353.572 7.934 0 9.793 0l3.013.005C13.464.005 14 .506 14 1.12v3.306c0 .615-.537 1.115-1.196 1.115h-2.028c-.619 0-.776.117-.81.152-.056.059-.122.225-.122.684v1.408h2.807c.212 0 .417.049.592.14.38.198.616.572.616.976l-.001 3.56c0 .615-.537 1.115-1.197 1.115H9.844v8.308C9.844 22.5 9.307 23 8.648 23zm-3.7-1.348h3.45v-8.68c0-.41.359-.744.799-.744h3.215V9.134H9.198c-.44 0-.799-.334-.799-.745V6.377c0-.527.057-1.126.484-1.576.515-.545 1.327-.607 1.893-.607l1.779-.001v-2.84l-2.762-.005c-2.988 0-4.845 1.784-4.845 4.655v2.386c0 .41-.358.745-.799.745H1.446v3.094h2.702c.44 0 .8.334.8.745v8.679z"
      fill="#4D4949"></path>
  </symbol>
  <symbol viewBox="0 0 14 10" xmlns="http://www.w3.org/2000/svg" id="a-icon-hidepass">
    <title>44F4A648-BDBF-4F40-8D0E-3E20F1562E97</title>
    <g fill="none">
      <path d="M12.075 3.104C9.264.299 4.69.299 1.878 3.104L0 4.977l1.924 1.92A7.197 7.197 0 0 0 7.024 9a7.197 7.197 0 0 0 5.098-2.104L14 5.023l-1.925-1.92zm-.288 3.459c-2.627 2.62-6.901 2.62-9.528 0L.669 4.977l1.543-1.54c2.627-2.62 6.902-2.62 9.529 0l1.59 1.586-1.544 1.54z"
        fill="#4D4949"></path>
      <path d="M6.75 3C5.785 3 5 3.785 5 4.75a.25.25 0 0 0 .5 0c0-.69.56-1.25 1.25-1.25a.25.25 0 0 0 0-.5z" fill="#4D4949"></path>
      <path d="M7 2C5.346 2 4 3.346 4 5s1.346 3 3 3 3-1.346 3-3-1.346-3-3-3zm0 5.538A2.541 2.541 0 0 1 4.462 5C4.462 3.6 5.6 2.462 7 2.462S9.538 3.6 9.538 5 8.4 7.538 7 7.538z" fill="#4D4949"></path>
      <path d="M10.952 1.048a.165.165 0 0 0-.234 0l-7.67 7.67a.165.165 0 1 0 .234.234l7.67-7.67a.165.165 0 0 0 0-.234z" stroke="#FFF"></path>
      <path d="M10.952 1.048a.165.165 0 0 0-.234 0l-7.67 7.67a.165.165 0 1 0 .234.234l7.67-7.67a.165.165 0 0 0 0-.234z" stroke="#4D4949" stroke-width=".4"></path>
    </g>
  </symbol>
  <symbol viewBox="0 0 65 56" xmlns="http://www.w3.org/2000/svg" id="a-icon-iconset">
    <title>A37B0BA6-3AA5-4E5D-9DDA-89038048205D</title>
    <g fill="#4D4949">
      <path d="M34.85 39.327H7.553a1.19 1.19 0 0 0-1.192 1.187A1.19 1.19 0 0 0 7.553 41.7H34.85a1.19 1.19 0 0 0 1.193-1.187 1.19 1.19 0 0 0-1.193-1.187z"></path>
      <path d="M49.532 6.41a1.19 1.19 0 0 0-1.192 1.186V30.48L37.782 15.769c-.468-.652-1.474-.652-1.941 0L23.885 32.427l-9.186-8a1.198 1.198 0 0 0-1.571 0l-5.815 5.065a1.184 1.184 0 0 0-.112 1.675 1.197 1.197 0 0 0 1.683.112l5.03-4.38 9.39 8.177c.524.456 1.353.36 1.757-.203L36.81 18.5l11.53 16.064v4.763h-7.766a1.19 1.19 0 0 0-1.192 1.187 1.19 1.19 0 0 0 1.192 1.187h8.958a1.19 1.19 0 0 0 1.192-1.187V7.596a1.19 1.19 0 0 0-1.192-1.187z"></path>
      <path d="M24.09 21.444c2.762 0 5.009-2.237 5.009-4.986 0-2.748-2.247-4.985-5.009-4.985-2.762 0-5.009 2.237-5.009 4.985 0 2.75 2.247 4.986 5.01 4.986zm0-7.597a2.62 2.62 0 0 1 2.624 2.611 2.62 2.62 0 0 1-2.624 2.612 2.62 2.62 0 0 1-2.623-2.612 2.62 2.62 0 0 1 2.623-2.61zM11.852 50.721H9.899a1.19 1.19 0 0 0-1.193 1.187A1.19 1.19 0 0 0 9.9 53.095h1.953a1.19 1.19 0 0 0 1.192-1.187 1.19 1.19 0 0 0-1.192-1.187zm7.161 0H17.06a1.19 1.19 0 0 0-1.193 1.187 1.19 1.19 0 0 0 1.193 1.187h1.953a1.19 1.19 0 0 0 1.193-1.187 1.19 1.19 0 0 0-1.193-1.187zm21.483 0h-1.953a1.19 1.19 0 0 0-1.192 1.187 1.19 1.19 0 0 0 1.192 1.187h1.953a1.19 1.19 0 0 0 1.193-1.187 1.19 1.19 0 0 0-1.193-1.187zm14.323 0h-1.954a1.19 1.19 0 0 0-1.192 1.187 1.19 1.19 0 0 0 1.192 1.187h1.954a1.19 1.19 0 0 0 1.192-1.187 1.19 1.19 0 0 0-1.192-1.187zm-28.645 0h-1.953a1.19 1.19 0 0 0-1.192 1.187 1.19 1.19 0 0 0 1.192 1.187h1.953a1.19 1.19 0 0 0 1.193-1.187 1.19 1.19 0 0 0-1.193-1.187zm21.484 0h-1.954a1.19 1.19 0 0 0-1.192 1.187 1.19 1.19 0 0 0 1.192 1.187h1.954a1.19 1.19 0 0 0 1.192-1.187 1.19 1.19 0 0 0-1.192-1.187zm-14.323 0h-1.953a1.19 1.19 0 0 0-1.192 1.187 1.19 1.19 0 0 0 1.192 1.187h1.953a1.19 1.19 0 0 0 1.193-1.187 1.19 1.19 0 0 0-1.193-1.187zM3.737 42.902a1.19 1.19 0 0 0-1.193 1.187v1.873a1.19 1.19 0 0 0 1.193 1.188 1.19 1.19 0 0 0 1.192-1.188V44.09a1.19 1.19 0 0 0-1.192-1.187zM4.93 37.22a1.19 1.19 0 0 0-1.193-1.187 1.19 1.19 0 0 0-1.193 1.187v1.873a1.19 1.19 0 0 0 1.193 1.187 1.19 1.19 0 0 0 1.192-1.187V37.22zm0-6.87a1.19 1.19 0 0 0-1.193-1.186 1.19 1.19 0 0 0-1.193 1.187v1.873a1.19 1.19 0 0 0 1.193 1.187 1.19 1.19 0 0 0 1.192-1.187v-1.873zm0-20.607a1.19 1.19 0 0 0-1.193-1.187 1.19 1.19 0 0 0-1.193 1.187v1.873a1.19 1.19 0 0 0 1.193 1.187 1.19 1.19 0 0 0 1.192-1.187V9.743zm0 6.87a1.19 1.19 0 0 0-1.193-1.187 1.19 1.19 0 0 0-1.193 1.187v1.873a1.19 1.19 0 0 0 1.193 1.187 1.19 1.19 0 0 0 1.192-1.187v-1.873zm0 6.869a1.19 1.19 0 0 0-1.193-1.187 1.19 1.19 0 0 0-1.193 1.187v1.873a1.19 1.19 0 0 0 1.193 1.187 1.19 1.19 0 0 0 1.192-1.187v-1.873zM38.543 4.985h1.953a1.19 1.19 0 0 0 1.193-1.187 1.19 1.19 0 0 0-1.193-1.187h-1.953a1.19 1.19 0 0 0-1.192 1.187 1.19 1.19 0 0 0 1.192 1.187zm-14.323 0h1.954a1.19 1.19 0 0 0 1.193-1.187 1.19 1.19 0 0 0-1.193-1.187h-1.953a1.19 1.19 0 0 0-1.192 1.187 1.19 1.19 0 0 0 1.192 1.187zm21.484 0h1.954a1.19 1.19 0 0 0 1.192-1.187 1.19 1.19 0 0 0-1.192-1.187h-1.954a1.19 1.19 0 0 0-1.192 1.187 1.19 1.19 0 0 0 1.192 1.187zm-14.322 0h1.953a1.19 1.19 0 0 0 1.193-1.187 1.19 1.19 0 0 0-1.193-1.187h-1.953a1.19 1.19 0 0 0-1.192 1.187 1.19 1.19 0 0 0 1.192 1.187zM54.819 2.61h-1.954a1.19 1.19 0 0 0-1.192 1.188 1.19 1.19 0 0 0 1.192 1.187h1.954a1.19 1.19 0 0 0 1.192-1.187A1.19 1.19 0 0 0 54.82 2.61zM17.06 4.985h1.953a1.19 1.19 0 0 0 1.193-1.187 1.19 1.19 0 0 0-1.193-1.187H17.06a1.19 1.19 0 0 0-1.193 1.187 1.19 1.19 0 0 0 1.193 1.187zm-7.161 0h1.953a1.19 1.19 0 0 0 1.192-1.187 1.19 1.19 0 0 0-1.192-1.187H9.899a1.19 1.19 0 0 0-1.193 1.187A1.19 1.19 0 0 0 9.9 4.985zM62.174 37.22a1.19 1.19 0 0 0-1.193-1.187 1.19 1.19 0 0 0-1.193 1.187v1.873a1.19 1.19 0 0 0 1.193 1.187 1.19 1.19 0 0 0 1.193-1.187V37.22zm0-6.87a1.19 1.19 0 0 0-1.193-1.186 1.19 1.19 0 0 0-1.193 1.187v1.873a1.19 1.19 0 0 0 1.193 1.187 1.19 1.19 0 0 0 1.193-1.187v-1.873zm0-6.868a1.19 1.19 0 0 0-1.193-1.187 1.19 1.19 0 0 0-1.193 1.187v1.873a1.19 1.19 0 0 0 1.193 1.187 1.19 1.19 0 0 0 1.193-1.187v-1.873zm-1.194 19.42a1.19 1.19 0 0 0-1.192 1.187v1.873a1.19 1.19 0 0 0 1.193 1.188 1.19 1.19 0 0 0 1.193-1.188V44.09a1.19 1.19 0 0 0-1.193-1.187zm1.194-26.289a1.19 1.19 0 0 0-1.193-1.187 1.19 1.19 0 0 0-1.193 1.187v1.873a1.19 1.19 0 0 0 1.193 1.187 1.19 1.19 0 0 0 1.193-1.187v-1.873zm0-6.87a1.19 1.19 0 0 0-1.193-1.187 1.19 1.19 0 0 0-1.193 1.187v1.873a1.19 1.19 0 0 0 1.193 1.187 1.19 1.19 0 0 0 1.193-1.187V9.743zM1.193 7.517H6.28A1.19 1.19 0 0 0 7.473 6.33V1.266A1.19 1.19 0 0 0 6.281.079H1.193A1.19 1.19 0 0 0 0 1.266V6.33a1.19 1.19 0 0 0 1.193 1.187zm1.192-5.064h2.703v2.69H2.385v-2.69zm56.051 5.064h5.089a1.19 1.19 0 0 0 1.193-1.187V1.266A1.19 1.19 0 0 0 63.525.079h-5.089a1.19 1.19 0 0 0-1.192 1.187V6.33a1.19 1.19 0 0 0 1.192 1.187zm1.193-5.064h2.703v2.69H59.63v-2.69zM6.28 48.19H1.194A1.19 1.19 0 0 0 0 49.375v5.064a1.19 1.19 0 0 0 1.193 1.187H6.28a1.19 1.19 0 0 0 1.192-1.187v-5.064a1.19 1.19 0 0 0-1.192-1.187zm-1.192 5.063H2.385v-2.69h2.703v2.69zM63.78 48.19h-5.087a1.19 1.19 0 0 0-1.193 1.186v5.064a1.19 1.19 0 0 0 1.193 1.187h5.088a1.19 1.19 0 0 0 1.192-1.187v-5.064a1.19 1.19 0 0 0-1.192-1.187zm-1.192 5.063h-2.703v-2.69h2.703v2.69z"></path>
    </g>
  </symbol>
  <symbol viewBox="0 0 23 23" xmlns="http://www.w3.org/2000/svg" id="a-icon-instagram">
    <title>7947E0A8-55C5-42AE-8898-4D1D3A79ED3C</title>
    <g fill="#4D4949">
      <path d="M16.774 0H6.226A6.233 6.233 0 0 0 0 6.226v10.548A6.233 6.233 0 0 0 6.226 23h10.548A6.233 6.233 0 0 0 23 16.774V6.226A6.233 6.233 0 0 0 16.774 0zm4.878 16.774a4.883 4.883 0 0 1-4.878 4.878H6.226a4.883 4.883 0 0 1-4.878-4.878V6.226a4.883 4.883 0 0 1 4.878-4.878h10.548a4.883 4.883 0 0 1 4.878 4.878v10.548z"></path>
      <path d="M11 6c-3.308 0-6 2.692-6 6s2.692 6 6 6 6-2.692 6-6-2.692-6-6-6zm0 10.714A4.719 4.719 0 0 1 6.286 12 4.72 4.72 0 0 1 11 7.286 4.72 4.72 0 0 1 15.714 12 4.72 4.72 0 0 1 11 16.714zM17 3c-1.103 0-2 .897-2 2s.897 2 2 2 2-.897 2-2-.897-2-2-2zm0 2.549a.55.55 0 1 1 .001-1.1.55.55 0 0 1-.001 1.1z"></path>
    </g>
  </symbol>
  <symbol viewBox="0 0 24 24" xmlns="http://www.w3.org/2000/svg" id="a-icon-like-1">
    <title>28C7655E-2024-47D0-928E-7FBC0BE6838C</title>
    <path d="M0 10.706v11.59c0 .73.574 1.319 1.272 1.319h3.803c.437 0 .816-.223 1.05-.568a3.308 3.308 0 0 0 2.31.953h10.19c2.283 0 3.738-1.244 3.999-3.406l1.37-9.03c.006-.034.006-.067.006-.101 0-1.926-1.513-3.494-3.373-3.494h-5.095V4.177c0-1.642-.463-2.825-1.383-3.528C12.695-.453 10.705.176 10.62.203a.665.665 0 0 0-.45.635V5.15c0 3.36-3.77 4.508-3.927 4.555a.516.516 0 0 0-.215.115 1.254 1.254 0 0 0-.946-.439h-3.81C.568 9.381 0 9.976 0 10.706zm6.354.31c.078.007.156 0 .235-.02.202-.06 4.873-1.46 4.873-5.84V1.38c.502-.081 1.33-.108 1.924.351.568.433.855 1.257.855 2.44v4.46c0 .373.287.67.646.67h5.74c1.135 0 2.055.94 2.081 2.109l-1.363 8.982v.02c-.176 1.487-1.09 2.237-2.72 2.237H8.435c-1.148 0-2.081-.966-2.081-2.156v-9.475zm-5.062-.297h3.77v11.558h-3.77V10.719z"
      fill="#4D4949"></path>
  </symbol>
  <symbol viewBox="0 0 24 24" xmlns="http://www.w3.org/2000/svg" id="a-icon-like-2">
    <title>2EC00B6F-368B-4C07-AE33-E53656FACCE1</title>
    <path d="M0 10.706v11.59c0 .73.574 1.319 1.272 1.319h3.803c.437 0 .816-.223 1.05-.568a3.308 3.308 0 0 0 2.31.953h10.19c2.283 0 3.738-1.244 3.999-3.406l1.37-9.03c.006-.034.006-.067.006-.101 0-1.926-1.513-3.494-3.373-3.494h-5.095V4.177c0-1.642-.463-2.825-1.383-3.528C12.695-.453 10.705.176 10.62.203a.665.665 0 0 0-.45.635V5.15c0 3.36-3.77 4.508-3.927 4.555a.516.516 0 0 0-.215.115 1.254 1.254 0 0 0-.946-.439h-3.81C.568 9.381 0 9.976 0 10.706zm6.354.31c.078.007.156 0 .235-.02.202-.06 4.873-1.46 4.873-5.84V1.38c.502-.081 1.33-.108 1.924.351.568.433.855 1.257.855 2.44v4.46c0 .373.287.67.646.67h5.74c1.135 0 2.055.94 2.081 2.109l-1.363 8.982v.02c-.176 1.487-1.09 2.237-2.72 2.237H8.435c-1.148 0-2.081-.966-2.081-2.156v-9.475zm-5.062-.297h3.77v11.558h-3.77V10.719z"
      fill="#4D4949"></path>
  </symbol>
  <symbol viewBox="0 0 24 24" xmlns="http://www.w3.org/2000/svg" id="a-icon-like-active">
    <title>CF756A4B-A04C-418F-8A2C-07A3BD183F67</title>
    <g fill="#393737" fill-rule="evenodd">
      <path d="M0 10.706v11.59c0 .73.574 1.319 1.272 1.319h3.803c.437 0 .816-.223 1.05-.568a3.308 3.308 0 0 0 2.31.953h10.19c2.283 0 3.738-1.244 3.999-3.406l1.37-9.03c.006-.034.006-.067.006-.101 0-1.926-1.513-3.494-3.373-3.494h-5.095V4.177c0-1.642-.463-2.825-1.383-3.528C12.695-.453 10.705.176 10.62.203a.665.665 0 0 0-.45.635V5.15c0 3.36-3.77 4.508-3.927 4.555a.516.516 0 0 0-.215.115 1.254 1.254 0 0 0-.946-.439h-3.81C.568 9.381 0 9.976 0 10.706zm6.354.31c.078.007.156 0 .235-.02.202-.06 4.873-1.46 4.873-5.84V1.38c.502-.081 1.33-.108 1.924.351.568.433.855 1.257.855 2.44v4.46c0 .373.287.67.646.67h5.74c1.135 0 2.055.94 2.081 2.109l-1.363 8.982v.02c-.176 1.487-1.09 2.237-2.72 2.237H8.435c-1.148 0-2.081-.966-2.081-2.156v-9.475zm-5.062-.297h3.77v11.558h-3.77V10.719z"
        fill-rule="nonzero"></path>
      <path d="M.947 10.72v11.888l10.833.353 9.655-.353 1.523-11.986-1.523-1.414-3.93-.413h-2.943V2.171l-.917-.908H11.78l-.527.19V5.43l-1.234 2.973-1.406 1.548-4.03.67z"></path>
    </g>
  </symbol>
  <symbol viewBox="0 0 24 24" xmlns="http://www.w3.org/2000/svg" id="a-icon-like-hover">
    <title>82861DDD-F1DA-41B8-9948-F7AE29D379E6</title>
    <g fill="#4D4949" fill-rule="evenodd">
      <path d="M0 10.706v11.59c0 .73.574 1.319 1.272 1.319h3.803c.437 0 .816-.223 1.05-.568a3.308 3.308 0 0 0 2.31.953h10.19c2.283 0 3.738-1.244 3.999-3.406l1.37-9.03c.006-.034.006-.067.006-.101 0-1.926-1.513-3.494-3.373-3.494h-5.095V4.177c0-1.642-.463-2.825-1.383-3.528C12.695-.453 10.705.176 10.62.203a.665.665 0 0 0-.45.635V5.15c0 3.36-3.77 4.508-3.927 4.555a.516.516 0 0 0-.215.115 1.254 1.254 0 0 0-.946-.439h-3.81C.568 9.381 0 9.976 0 10.706zm6.354.31c.078.007.156 0 .235-.02.202-.06 4.873-1.46 4.873-5.84V1.38c.502-.081 1.33-.108 1.924.351.568.433.855 1.257.855 2.44v4.46c0 .373.287.67.646.67h5.74c1.135 0 2.055.94 2.081 2.109l-1.363 8.982v.02c-.176 1.487-1.09 2.237-2.72 2.237H8.435c-1.148 0-2.081-.966-2.081-2.156v-9.475zm-5.062-.297h3.77v11.558h-3.77V10.719z"
        fill-rule="nonzero"></path>
      <path d="M.947 10.72v11.888l10.833.353 9.655-.353 1.523-11.986-1.523-1.414-3.93-.413h-2.943V2.171l-.917-.908H11.78l-.527.19V5.43l-1.234 2.973-1.406 1.548-4.03.67z"></path>
    </g>
  </symbol>
  <symbol viewBox="0 0 45 45" xmlns="http://www.w3.org/2000/svg" id="a-icon-mail">
    <title>D3531D64-97AE-40F1-A4B4-7ED17AD7764F</title>
    <g fill="#4D4949">
      <path d="M29.707 17.293A1.008 1.008 0 0 0 29 17c-.263 0-.521.107-.707.293A1.008 1.008 0 0 0 28 18c0 .263.107.521.293.707.186.186.444.293.707.293.263 0 .52-.107.707-.293.186-.186.293-.444.293-.707 0-.264-.107-.521-.293-.707z"></path>
      <path d="M43.896.497l-.03-.022A2.638 2.638 0 0 0 42.353 0H17.647a2.636 2.636 0 0 0-1.526.485A2.635 2.635 0 0 0 15 2.639V16.36A2.646 2.646 0 0 0 17.647 19h6.53a.881.881 0 0 0 .882-.88.881.881 0 0 0-.883-.88h-5.663l7.241-8.434 3.73 2.683a.883.883 0 0 0 1.031 0l3.735-2.678 7.237 8.43h-9.016a.881.881 0 0 0-.883.88c0 .485.395.879.883.879h9.882A2.646 2.646 0 0 0 45 16.361V2.64c0-.881-.436-1.663-1.104-2.142zm-27.11 16.05a.877.877 0 0 1-.021-.186V2.64c0-.094.015-.185.043-.27l7.51 5.404-7.533 8.775zM30 9.692L18.976 1.76H41.06L30 9.691zm13.234 6.67a.877.877 0 0 1-.02.187L35.687 7.78 43.2 2.392a.873.873 0 0 1 .036.247V16.36zM38.968 38c-.154 0-.301.032-.433.088h-.503c-.57 0-1.032.428-1.032.956s.462.956 1.032.956h.936c.57 0 1.032-.428 1.032-.956v-.088c0-.528-.462-.956-1.032-.956zM39 34a1 1 0 0 0-1 1v1a1 1 0 1 0 2 0v-1a1 1 0 0 0-1-1zm-4 4h-1a1 1 0 0 0 0 2h1a1 1 0 1 0 0-2zm4-17a1 1 0 0 0-1 1v1a1 1 0 0 0 2 0v-1a1 1 0 0 0-1-1zm0 5a1 1 0 0 0-1 1v1a1 1 0 0 0 2 0v-1a1 1 0 0 0-1-1zm0 4a1 1 0 0 0-1 1v1a1 1 0 1 0 2 0v-1a1 1 0 0 0-1-1zM7 5H6a1 1 0 0 0 0 2h1a1 1 0 0 0 0-2zm4 0h-1a1 1 0 0 0 0 2h1a1 1 0 0 0 0-2zM6 8a1 1 0 0 0-1 1v1a1 1 0 0 0 2 0V9a1 1 0 0 0-1-1zm0 4a1 1 0 0 0-1 1v1a1 1 0 0 0 2 0v-1a1 1 0 0 0-1-1zm3.707 23.293A1.008 1.008 0 0 0 9 35a1.01 1.01 0 0 0-.708.293A1.007 1.007 0 0 0 8 36c0 .263.106.52.292.707.187.186.445.293.708.293.263 0 .52-.107.707-.293.186-.186.293-.444.293-.707 0-.263-.107-.52-.293-.707z"></path>
      <path d="M27.014 36.663l-4.573-4.573a3.37 3.37 0 0 0-4.76 0l-.298.298a1.062 1.062 0 0 1-1.5 0l-3.272-3.271c-.2-.2-.31-.467-.31-.75 0-.284.11-.55.31-.751l.298-.298a3.37 3.37 0 0 0 0-4.76l-4.573-4.574a3.37 3.37 0 0 0-4.76 0l-1.094 1.094c-3.31 3.31-3.31 8.696 0 12.005l2.983 2.983a.868.868 0 0 0 1.228-1.227L3.71 29.856a6.76 6.76 0 0 1 0-9.55l1.094-1.094a1.632 1.632 0 0 1 2.305 0l4.573 4.573c.635.635.635 1.67 0 2.305l-.298.298a2.88 2.88 0 0 0-.297.35l-3.612-3.612a.868.868 0 0 0-1.227 1.228l4.336 4.336c.071.624.349 1.203.8 1.654l3.27 3.271a2.8 2.8 0 0 0 3.957 0l.298-.298a1.632 1.632 0 0 1 2.305 0l4.573 4.573c.308.308.477.718.477 1.153 0 .435-.17.845-.477 1.153l-.622.621-4.162-4.162a.868.868 0 0 0-1.227 1.227l4.102 4.102c-2.639 1.913-6.359 1.682-8.735-.694l-2.247-2.248a.868.868 0 0 0-1.228 1.228l2.248 2.247A8.46 8.46 0 0 0 19.918 45a8.461 8.461 0 0 0 6.002-2.482l1.094-1.095a3.344 3.344 0 0 0 .986-2.38c0-.899-.35-1.744-.986-2.38z"></path>
    </g>
  </symbol>
  <symbol viewBox="0 0 37 40" xmlns="http://www.w3.org/2000/svg" id="a-icon-melody">
    <title>6C1C4645-1605-4890-AEAF-BD0A7FD3DB11</title>
    <path d="M36.753.18a.733.733 0 0 0-.572-.175L13.69 2.922a.726.726 0 0 0-.632.721v25.9c-1.325-1.596-3.43-2.634-5.804-2.634-4 0-7.255 2.936-7.255 6.545C0 37.064 3.255 40 7.255 40s7.255-2.936 7.255-6.546c0-.168-.014-.334-.028-.5.009-.046.028-.09.028-.139V11.722l21.039-2.73V22.27c-1.325-1.595-3.43-2.634-5.804-2.634-4 0-7.255 2.936-7.255 6.546 0 3.61 3.255 6.545 7.255 6.545 3.964 0 7.192-2.884 7.25-6.449 0-.01.005-.017.005-.027V.727c0-.21-.09-.409-.247-.546zM7.255 38.546c-3.2 0-5.804-2.284-5.804-5.09 0-2.807 2.604-5.092 5.804-5.092s5.804 2.285 5.804 5.091c0 2.807-2.604 5.091-5.804 5.091zm22.49-7.272c-3.2 0-5.804-2.285-5.804-5.091 0-2.807 2.604-5.091 5.804-5.091s5.804 2.284 5.804 5.09c0 2.807-2.604 5.092-5.804 5.092zM14.51 10.255V4.282l21.039-2.728v5.971l-21.04 2.73z"
      fill="#D8D8D8"></path>
  </symbol>
  <symbol viewBox="0 0 40 40" xmlns="http://www.w3.org/2000/svg" id="a-icon-picture">
    <title>B7306083-D2C4-48DF-88C6-17ED4D9594E0</title>
    <g fill="#D8D8D8">
      <path d="M36.552 0H3.448A3.45 3.45 0 0 0 0 3.448v33.104A3.45 3.45 0 0 0 3.448 40h33.104A3.45 3.45 0 0 0 40 36.552V3.448A3.45 3.45 0 0 0 36.552 0zM1.379 3.448c0-1.145.924-2.069 2.07-2.069h33.103c1.145 0 2.069.924 2.069 2.07v21.627l-9.835-11.062-.014-.014-.013-.014c-.014-.014-.028-.014-.042-.027-.014-.014-.041-.028-.055-.042-.014-.014-.041-.027-.055-.041a.105.105 0 0 0-.055-.028c-.028-.014-.042-.014-.07-.027-.013 0-.04-.014-.054-.014-.028 0-.042-.014-.07-.014h-.205c-.028 0-.042.014-.07.014-.027 0-.04.014-.054.014-.028.013-.042.013-.07.027-.013.014-.04.014-.055.028-.013.014-.04.027-.055.041-.014.014-.027.014-.041.028l-.014.014-.014.013-13.227 13.283-.993-.896a.688.688 0 0 0-.952.027L1.64 37.531a2.065 2.065 0 0 1-.262-1.007V3.448zM2.676 38.47l10.455-10.62 11.972 10.77H3.448a2.03 2.03 0 0 1-.772-.152zm33.876.152h-9.393L15.572 28.193 28.234 15.49l10.373 11.669v9.393c.014 1.13-.924 2.069-2.055 2.069z"></path>
      <circle cx="12.5" cy="12.5" r="3.5"></circle>
      <path d="M4.353 16a.35.35 0 0 0 .353-.353V4.706h10.941A.35.35 0 0 0 16 4.353.35.35 0 0 0 15.647 4H4.353A.35.35 0 0 0 4 4.353v11.294a.35.35 0 0 0 .353.353z"></path>
    </g>
  </symbol>
  <symbol viewBox="0 0 72 72" xmlns="http://www.w3.org/2000/svg" id="a-icon-play">
    <title>0010E2E7-A139-478E-B2F0-32ECF72AE09C</title>
    <g fill="none" fill-rule="evenodd">
      <circle fill-opacity=".7" fill="#4D4949" fill-rule="nonzero" cx="36" cy="36" r="36"></circle>
      <path d="M30.73 24.956V48.5h1.544l15.118-11.974-16.662-11.57z" stroke="#FFF" fill="#FFF"></path>
      <path d="M50.322 35.197L30.403 21.264c-.619-.468-2.27-.468-2.403 1.296v27.866c.147 1.764 1.828 1.794 2.403 1.297l19.92-13.933c.516-.317 1.223-1.613 0-2.593zm-19.24 12.259V25.53l15.643 10.962-15.643 10.963z" fill="#FFF" fill-rule="nonzero"></path>
    </g>
  </symbol>
  <symbol viewBox="0 0 40 40" xmlns="http://www.w3.org/2000/svg" id="a-icon-playmini">
    <title>0E9E0B83-FB14-4093-8031-C02233E2F4A5</title>
    <g fill="#D8D8D8">
      <path d="M28.617 19.243l-11.259-8.09c-.35-.271-1.283-.271-1.358.753v16.18c.083 1.025 1.033 1.042 1.358.753l11.26-8.09c.29-.184.69-.937 0-1.506zm-10.875 7.118v-12.73l8.842 6.365-8.842 6.365z"></path>
      <path d="M20 0C8.971 0 0 8.971 0 20s8.971 20 20 20 20-8.971 20-20S31.029 0 20 0zm0 38.294C9.91 38.294 1.706 30.09 1.706 20S9.91 1.706 20 1.706 38.294 9.91 38.294 20 30.09 38.294 20 38.294z"></path>
    </g>
  </symbol>
  <symbol viewBox="0 0 17 17" xmlns="http://www.w3.org/2000/svg" id="a-icon-search-1">
    <title>603D0A14-939E-4539-825B-11774AA96713</title>
    <g fill="none" fill-rule="evenodd">
      <path d="M12.476 10.973a6.86 6.86 0 0 0 1.336-4.067A6.914 6.914 0 0 0 6.906 0 6.914 6.914 0 0 0 0 6.906a6.914 6.914 0 0 0 6.906 6.907 6.86 6.86 0 0 0 4.067-1.337L15.498 17 17 15.498l-4.524-4.525zm-5.57.715a4.786 4.786 0 0 1-4.781-4.782 4.786 4.786 0 0 1 4.781-4.781 4.786 4.786 0 0 1 4.781 4.781 4.786 4.786 0 0 1-4.78 4.782z"
        fill="#FFF" fill-rule="nonzero"></path>
      <path stroke="#FFF" stroke-width=".5" stroke-linecap="square" d="M7 4v6m3-3H4"></path>
    </g>
  </symbol>
  <symbol viewBox="0 0 20 20" xmlns="http://www.w3.org/2000/svg" id="a-icon-search-2">
    <title>D4AA33C4-7134-4A99-804D-8E2BF35DA000</title>
    <path d="M19.827 18.98l-4.861-4.86a8.492 8.492 0 0 0 2.093-5.592C17.06 3.823 13.231 0 8.53 0 3.824 0 0 3.827 0 8.528c0 4.7 3.828 8.527 8.53 8.527a8.494 8.494 0 0 0 5.593-2.093l4.861 4.86a.6.6 0 0 0 .422.178.6.6 0 0 0 .421-1.02zM1 8.498C1 4.36 4.367 1 8.5 1 12.638 1 16 4.366 16 8.498S12.638 16 8.5 16C4.367 16 1 12.634 1 8.498z"
      fill="#4D4949"></path>
  </symbol>
  <symbol viewBox="0 0 14 8" xmlns="http://www.w3.org/2000/svg" id="a-icon-showpass">
    <title>C5BB0AB6-AA5D-4E2F-AFC1-0221E03DE9D8</title>
    <g fill="#4D4949">
      <path d="M12.075 2.104C9.264-.701 4.69-.701 1.878 2.104L0 3.977l1.924 1.92A7.197 7.197 0 0 0 7.024 8a7.197 7.197 0 0 0 5.098-2.104L14 4.023l-1.925-1.92zm-.288 3.459c-2.627 2.62-6.901 2.62-9.528 0L.669 3.977l1.543-1.54c2.627-2.62 6.902-2.62 9.529 0l1.59 1.586-1.544 1.54z"></path>
      <path d="M6.75 2C5.785 2 5 2.785 5 3.75a.25.25 0 0 0 .5 0c0-.69.56-1.25 1.25-1.25a.25.25 0 0 0 0-.5z"></path>
      <path d="M7 1C5.346 1 4 2.346 4 4s1.346 3 3 3 3-1.346 3-3-1.346-3-3-3zm0 5.538A2.541 2.541 0 0 1 4.462 4C4.462 2.6 5.6 1.462 7 1.462S9.538 2.6 9.538 4 8.4 6.538 7 6.538z"></path>
    </g>
  </symbol>
  <symbol viewBox="0 0 36 40" xmlns="http://www.w3.org/2000/svg" id="a-icon-text">
    <title>C8F833D7-3A94-4B59-81E5-8495367F592F</title>
    <g fill="#D8D8D8">
      <path d="M27.086.266l-.009-.008A.846.846 0 0 0 26.46 0H14.271a4.292 4.292 0 0 0-4.285 4.296V6.09h-5.7A4.291 4.291 0 0 0 0 10.387v25.318A4.292 4.292 0 0 0 4.286 40h17.443a4.292 4.292 0 0 0 4.285-4.295v-1.796h5.7A4.292 4.292 0 0 0 36 29.613V9.545a.888.888 0 0 0-.249-.61L27.086.266zm.231 2.664l5.769 5.773h-3.197a2.582 2.582 0 0 1-2.572-2.577V2.93zM21.73 38.282H4.286a2.582 2.582 0 0 1-2.572-2.577V10.387a2.582 2.582 0 0 1 2.572-2.578h6.257a.9.9 0 0 0 .6 0h4.483v4.407a4.292 4.292 0 0 0 4.285 4.296h4.397v19.193a2.59 2.59 0 0 1-2.58 2.577zm1.38-23.488h-3.2a2.582 2.582 0 0 1-2.571-2.578V9.021l5.768 5.773zm8.605 17.397h-5.7V15.636a.887.887 0 0 0-.248-.61l-8.658-8.668-.008-.009a.846.846 0 0 0-.617-.258H11.7V4.296a2.582 2.582 0 0 1 2.571-2.578h11.34v4.408a4.292 4.292 0 0 0 4.286 4.295h4.389v19.192a2.582 2.582 0 0 1-2.572 2.578z"></path>
      <path d="M5.17 21.705h8.737c.476 0 .862-.416.862-.93s-.386-.93-.862-.93H5.17c-.476 0-.862.416-.862.93s.386.93.862.93zm15.517 4.342H5.159c-.47 0-.851.416-.851.93 0 .513.381.93.851.93h15.528c.47 0 .851-.417.851-.93 0-.514-.38-.93-.851-.93zm0 6.201H5.159c-.47 0-.851.417-.851.93 0 .514.381.93.851.93h15.528c.47 0 .851-.416.851-.93 0-.513-.38-.93-.851-.93zM30.84 19.845h-2.603c-.47 0-.852.416-.852.93s.381.93.852.93h2.602c.471 0 .853-.416.853-.93s-.382-.93-.853-.93zm0 6.202h-2.603c-.47 0-.852.416-.852.93 0 .513.381.93.852.93h2.602c.471 0 .853-.417.853-.93 0-.514-.382-.93-.853-.93z"></path>
    </g>
  </symbol>
  <symbol viewBox="0 0 14 14" xmlns="http://www.w3.org/2000/svg" id="a-icon-time">
    <title>961385D9-4FF4-435D-8048-8DD930A471C9</title>
    <g fill="#818181">
      <path d="M7 0C3.14 0 0 3.14 0 7s3.14 7 7 7 7-3.14 7-7-3.14-7-7-7zm0 13.533A6.54 6.54 0 0 1 .467 7 6.54 6.54 0 0 1 7 .467 6.54 6.54 0 0 1 13.533 7 6.54 6.54 0 0 1 7 13.533z"></path>
      <path d="M7 1.4a.233.233 0 0 0-.233.233V7h-3.5a.233.233 0 1 0 0 .467H7a.233.233 0 0 0 .233-.234v-5.6A.233.233 0 0 0 7 1.4z"></path>
    </g>
  </symbol>
  <symbol viewBox="0 0 65 65" xmlns="http://www.w3.org/2000/svg" id="a-icon-typography">
    <title>4FA81565-A895-433F-8853-39E5C9C60484</title>
    <g fill="#4D4949">
      <path d="M37.113 49.677V21.133h7.989l2.838 1.893c.628.42 1.497-.048 1.497-.801V11.949a.963.963 0 0 0-.963-.963H15.61a.963.963 0 0 0-.963.963v10.276c0 .754.868 1.22 1.497.801l2.838-1.893h7.988v3.147a.963.963 0 1 0 1.926 0v-4.11a.963.963 0 0 0-.963-.964h-9.242a.96.96 0 0 0-.534.162l-1.584 1.057v-7.512H47.51v7.512l-1.584-1.057a.96.96 0 0 0-.534-.162H36.15a.963.963 0 0 0-.963.964v29.799c0 .19.057.376.162.534l1.056 1.585H27.68l1.056-1.585a.967.967 0 0 0 .161-.534V28.904a.963.963 0 1 0-1.926 0v20.773l-1.891 2.84c-.42.629.047 1.497.8 1.497h12.324c.753 0 1.22-.868.801-1.497l-1.892-2.84zm16.051-36.86h.785c.542 0 .98-.41.98-.916 0-.505-.438-.915-.98-.915h-.785c-.541 0-.98.41-.98.915 0 .506.439.916.98.916zm4.614 0h1.627c.562 0 1.018-.41 1.018-.916 0-.505-.456-.915-1.018-.915h-1.627c-.562 0-1.017.41-1.017.915 0 .506.455.916 1.017.916zm5.456 0h.785c.542 0 .981-.41.981-.916 0-.505-.439-.915-.98-.915h-.786c-.541 0-.98.41-.98.915 0 .506.439.916.98.916zm-10.07 10.07h.785c.542 0 .98-.41.98-.915 0-.506-.438-.916-.98-.916h-.785c-.541 0-.98.41-.98.916s.439.915.98.915zm4.614 0h1.627c.562 0 1.018-.41 1.018-.915 0-.506-.456-.916-1.018-.916h-1.627c-.562 0-1.017.41-1.017.916s.455.915 1.017.915zm6.242-1.831h-.786c-.541 0-.98.41-.98.916s.439.915.98.915h.785c.542 0 .981-.41.981-.915 0-.506-.439-.916-.98-.916zM.98 12.817h.786c.541 0 .98-.41.98-.916 0-.505-.439-.915-.98-.915H.98c-.542 0-.981.41-.981.915 0 .506.439.916.98.916zm4.615 0h1.627c.562 0 1.017-.41 1.017-.916 0-.505-.455-.915-1.017-.915H5.595c-.562 0-1.018.41-1.018.915 0 .506.456.916 1.018.916zm5.456 0h.785c.541 0 .98-.41.98-.916 0-.505-.439-.915-.98-.915h-.785c-.542 0-.98.41-.98.915 0 .506.438.916.98.916zm-8.305 9.155c0-.506-.439-.916-.98-.916H.98c-.542 0-.981.41-.981.916s.439.915.98.915h.786c.541 0 .98-.41.98-.915zm2.849.915h1.627c.562 0 1.017-.41 1.017-.915 0-.506-.455-.916-1.017-.916H5.595c-.562 0-1.018.41-1.018.916s.456.915 1.018.915zm5.456 0h.785c.541 0 .98-.41.98-.915 0-.506-.439-.916-.98-.916h-.785c-.542 0-.98.41-.98.916s.438.915.98.915zm37.47-19.225c.506 0 .916-.456.916-1.017V1.017c0-.562-.41-1.017-.916-1.017-.505 0-.915.455-.915 1.017v1.628c0 .561.41 1.017.915 1.017zm0 5.493c.506 0 .916-.456.916-1.017V6.51c0-.562-.41-1.017-.916-1.017-.505 0-.915.455-.915 1.017v1.628c0 .561.41 1.017.915 1.017zm-32.042 0c.505 0 .915-.456.915-1.017V6.51c0-.562-.41-1.017-.915-1.017-.506 0-.916.455-.916 1.017v1.628c0 .561.41 1.017.916 1.017zm0-5.493c.505 0 .915-.456.915-1.017V1.017c0-.562-.41-1.017-.915-1.017-.506 0-.916.455-.916 1.017v1.628c0 .561.41 1.017.916 1.017zM36.62 55.845c-.506 0-.916.456-.916 1.017v1.628c0 .562.41 1.017.916 1.017.505 0 .915-.455.915-1.017v-1.628c0-.561-.41-1.017-.915-1.017zm0 5.493c-.506 0-.916.456-.916 1.017v1.628c0 .562.41 1.017.916 1.017.505 0 .915-.455.915-1.017v-1.628c0-.561-.41-1.017-.915-1.017zm-8.24-5.493c-.505 0-.915.456-.915 1.017v1.628c0 .562.41 1.017.915 1.017.506 0 .916-.455.916-1.017v-1.628c0-.561-.41-1.017-.916-1.017zm0 5.493c-.505 0-.915.456-.915 1.017v1.628c0 .562.41 1.017.915 1.017.506 0 .916-.455.916-1.017v-1.628c0-.561-.41-1.017-.916-1.017z"></path>
      <path d="M19.443 40.99a.937.937 0 0 0-.663-.275h-5.14c-.452-2.836-2.91-5.01-5.867-5.01-3.276 0-5.942 2.669-5.942 5.95s2.666 5.95 5.942 5.95c2.956 0 5.415-2.174 5.866-5.01h4.752l4.729 4.736a.947.947 0 0 0 1.376-.055.95.95 0 0 0-.05-1.274l-5.003-5.011zm-11.67 4.736a4.073 4.073 0 0 1 0-8.142 4.073 4.073 0 0 1 4.065 4.07 4.073 4.073 0 0 1-4.065 4.072zm49.455-18.689c-2.957 0-5.416 2.253-5.867 5.191h-4.588l-4.735-8.842a.93.93 0 0 0-1.276-.379c-.447.258-.613.86-.365 1.324l5.003 9.343c.166.31.48.501.82.501h5.141c.451 2.938 2.91 5.191 5.867 5.191 3.276 0 5.941-2.765 5.941-6.164 0-3.4-2.665-6.165-5.941-6.165zm0 10.382c-2.242 0-4.065-1.891-4.065-4.217 0-2.326 1.823-4.218 4.065-4.218 2.241 0 4.065 1.892 4.065 4.218s-1.824 4.217-4.065 4.217zM19.415 4.45c-.282.382-.248.945.089 1.281l3.079 3.14a.958.958 0 0 0 1.41-.055c.323-.384.3-.975-.05-1.332l-1.436-1.465H42.49l-1.436 1.465c-.35.357-.374.948-.051 1.332a.958.958 0 0 0 1.411.056l3.079-3.14a.994.994 0 0 0 0-1.388l-3.079-3.141a.949.949 0 0 0-1.36 0 .995.995 0 0 0 0 1.388l1.436 1.465H22.507l1.436-1.465a.994.994 0 0 0 0-1.388.949.949 0 0 0-1.36 0l-3.079 3.14a.864.864 0 0 0-.09.107z"></path>
    </g>
  </symbol>
  <symbol viewBox="0 0 14 13" xmlns="http://www.w3.org/2000/svg" id="Group">
    <title>3B7AC287-DF1C-4781-970E-38C95336D631</title>
    <g fill="none" fill-rule="evenodd">
      <path fill="#DEEE23" d="M7 10.5l-4.114 2.163.785-4.581L.343 4.837l4.6-.669L7 0l2.057 4.168 4.6.669-3.328 3.245.785 4.581z"></path>
      <path fill="#D8D8D8" d="M7 10.5V0l2.057 4.168 4.6.669-3.328 3.245.785 4.581z"></path>
    </g>
  </symbol>
  <symbol viewBox="0 0 14 13" xmlns="http://www.w3.org/2000/svg" id="Star-1">
    <title>9CCCFD7E-BA79-49C0-AA00-5AA32E1C3146</title>
    <path d="M7 10.5l-4.114 2.163.785-4.581L.343 4.837l4.6-.669L7 0l2.057 4.168 4.6.669-3.328 3.245.785 4.581z" fill="#DEEE23" fill-rule="evenodd"></path>
  </symbol>
  <symbol viewBox="0 0 14 13" xmlns="http://www.w3.org/2000/svg" id="Star-2">
    <title>552F7849-DA89-4711-A494-8766B434B0DC</title>
    <path d="M7 10.5l-4.114 2.163.785-4.581L.343 4.837l4.6-.669L7 0l2.057 4.168 4.6.669-3.328 3.245.785 4.581z" fill="#D8D8D8" fill-rule="evenodd"></path>
  </symbol>
</svg>