<svg width="0" height="0" class="hidden">
  <symbol viewBox="0 0 35 35" xmlns="http://www.w3.org/2000/svg" id="cvv">
    <title>96C4A947-A6AC-4981-8337-0A01C60FA78B</title>
    <g fill="none">
      <path d="M32.083 0h-24.5a2.909 2.909 0 0 0-2.916 2.893v5.206h-1.75C1.307 8.101.002 9.395 0 10.992V27.19c.002 1.597 1.307 2.89 2.917 2.893h14.222a7.005 7.005 0 0 0 7.413.187l.576.57-.416.412a.575.575 0 0 0 0 .818l2.063 2.045a2.933 2.933 0 0 0 2.822.76 2.905 2.905 0 0 0 2.068-2.051 2.876 2.876 0 0 0-.765-2.8l-1.133-1.122a2.87 2.87 0 0 0 .566-1.712v-5.207h1.75c1.61-.001 2.915-1.295 2.917-2.892V2.893C34.998 1.296 33.693.002 32.083 0zM2.917 9.256h24.5c.966 0 1.75.777 1.75 1.736v.578h-28v-.578c0-.959.783-1.736 1.75-1.736zm11.666-3.47a.58.58 0 0 1 .584.578v1.735h-1.75V5.785h1.166zM12.25 8.098H9.333V6.364a.58.58 0 0 1 .584-.579h2.333V8.1zm9.917-.578c0-.959.783-1.736 1.75-1.736.966 0 1.75.777 1.75 1.736a1.68 1.68 0 0 1-.117.578h-3.267a1.68 1.68 0 0 1-.116-.578zm-21 5.206h28v2.314h-28v-2.314zm27.69-4.235a2.899 2.899 0 0 0-1.44-.393h-.65c.042-.19.064-.384.066-.578a2.867 2.867 0 0 0-.39-1.433 1.75 1.75 0 0 1 2.216.205c.593.59.676 1.514.199 2.199zM17.793 29.124a.583.583 0 0 0-.22-.156 5.834 5.834 0 0 1-1.228-1.2h9.312c-1.844 2.45-5.295 3.044-7.864 1.356zm8.458-2.512H15.657a5.703 5.703 0 0 1 0-4.629s10.683-.005 10.685 0a5.696 5.696 0 0 1-.007 4.645.591.591 0 0 0-.085-.016zm-9.906-5.786A5.827 5.827 0 0 1 21 18.512a5.83 5.83 0 0 1 4.656 2.314h-9.312zm-2.238 4.629h-9.44V23.14h9.44a6.392 6.392 0 0 0 0 2.315zm11.412 4.136c.295-.248.57-.52.82-.813l.434.431-.82.816-.434-.434zm4.557 3.706a1.764 1.764 0 0 1-2.476 0l-1.65-1.636 2.476-2.455 1.65 1.636a1.729 1.729 0 0 1 0 2.455zm-1.238-5.318a.587.587 0 0 0-.825 0l-.415.412-.576-.57a6.886 6.886 0 0 0-.162-7.32 7.014 7.014 0 0 0-6.69-3.097 6.98 6.98 0 0 0-5.76 4.58H4.082a.58.58 0 0 0-.583.578v3.471c0 .32.261.579.583.579h10.325a6.93 6.93 0 0 0 1.39 2.314H2.916c-.967 0-1.75-.777-1.75-1.736V16.198h28V27.19a1.711 1.711 0 0 1-.248.87l-.082-.08zm4.996-8.888c0 .958-.783 1.735-1.75 1.735h-1.75v-9.834a2.851 2.851 0 0 0-.592-1.73 2.87 2.87 0 0 0-.263-3.78 2.93 2.93 0 0 0-3.811-.269 2.933 2.933 0 0 0-3.054-.278A2.887 2.887 0 0 0 21 7.52c.002.194.024.388.067.578h-4.734V6.364c0-.959-.783-1.736-1.75-1.736H9.917c-.967 0-1.75.777-1.75 1.736v1.735H5.833V2.893c0-.959.784-1.736 1.75-1.736h24.5c.967 0 1.75.777 1.75 1.736V19.09z"
        fill="#333"></path>
      <path d="M18.083 23.719h.584a.58.58 0 0 0 .583-.579.58.58 0 0 0-.583-.578h-.584c-.966 0-1.75.777-1.75 1.736 0 .958.784 1.735 1.75 1.735h.584a.58.58 0 0 0 .583-.578.58.58 0 0 0-.583-.579h-.584a.58.58 0 0 1-.583-.578.58.58 0 0 1 .583-.579z"
        fill="#000"></path>
      <path d="M22.427 22.623a.588.588 0 0 0-.782.259L21 24.16l-.642-1.28a.586.586 0 0 0-.782-.258.577.577 0 0 0-.262.776l1.167 2.314a.584.584 0 0 0 1.044 0l1.167-2.314a.574.574 0 0 0-.265-.776z" fill="#000"></path>
      <path d="M25.927 22.623a.588.588 0 0 0-.782.259L24.5 24.16l-.642-1.28a.586.586 0 0 0-.782-.258.577.577 0 0 0-.262.776l1.167 2.314a.584.584 0 0 0 1.044 0l1.167-2.314a.574.574 0 0 0-.265-.776z" fill="#000"></path>
    </g>
  </symbol>
  <symbol viewBox="0 0 35 35" xmlns="http://www.w3.org/2000/svg" id="dollar">
    <title>E5184F13-5194-4B07-AA52-CD732D51242F</title>
    <g fill="#333">
      <path d="M34.345 12.942a17.478 17.478 0 0 0-7.991-10.514l2.018-.54A.582.582 0 1 0 28.07.762l-3.373.904a.582.582 0 0 0-.412.712l.904 3.376a.582.582 0 0 0 1.125-.301l-.54-2.02A16.3 16.3 0 1 1 1.732 21.679a.582.582 0 0 0-1.124.301A17.484 17.484 0 0 0 17.45 34.932 17.55 17.55 0 0 0 22 34.33c9.315-2.497 14.842-12.073 12.346-21.388z"></path>
      <path d="M14.013 4.529a13.389 13.389 0 0 0 3.363 26.323l-1.128.844a.582.582 0 1 0 .698.932l2.51-1.878a.582.582 0 0 0 .117-.815l-1.877-2.51a.582.582 0 1 0-.93.698l1.157 1.547a12.22 12.22 0 1 1 11.364-15.372.582.582 0 1 0 1.124-.301c-1.92-7.138-9.256-11.373-16.398-9.468z"></path>
      <path d="M26.778 17.464a9.314 9.314 0 1 0-9.314 9.314 9.325 9.325 0 0 0 9.314-9.314zm-9.314 8.15a8.15 8.15 0 1 1 8.15-8.15 8.158 8.158 0 0 1-8.15 8.15z"></path>
      <path d="M17.464 10.478a6.985 6.985 0 1 0 6.985 6.986 6.993 6.993 0 0 0-6.985-6.986zm0 12.807a5.821 5.821 0 1 1 5.82-5.821 5.828 5.828 0 0 1-5.82 5.82zm-16.3-5.821c.01-8.998 7.302-16.29 16.3-16.3a.582.582 0 0 0 0-1.164C7.824.01.01 7.823 0 17.464a.582.582 0 0 0 1.164 0zM23.37 29.413a.577.577 0 0 0 .268-.066 13.357 13.357 0 0 0 7.214-11.883.582.582 0 0 0-1.164 0 12.197 12.197 0 0 1-6.588 10.85.582.582 0 0 0 .27 1.099z"></path>
      <path d="M17.464 14.553c.643 0 1.164.521 1.164 1.164a.582.582 0 0 0 1.164 0 2.328 2.328 0 0 0-1.746-2.246v-.664a.582.582 0 1 0-1.165 0v.664a2.324 2.324 0 0 0 .583 4.575 1.164 1.164 0 1 1-1.165 1.164.582.582 0 0 0-1.164 0 2.328 2.328 0 0 0 1.746 2.246v.665a.582.582 0 1 0 1.165 0v-.665a2.324 2.324 0 0 0-.582-4.575 1.164 1.164 0 1 1 0-2.328z"></path>
    </g>
  </symbol>
  <symbol viewBox="0 0 35 35" xmlns="http://www.w3.org/2000/svg" id="insurance">
    <title>5A867208-1883-495D-B489-9294CAE4E03F</title>
    <g fill="#333">
      <path d="M23.125 19.25c.345 0 .625-.261.625-.583-.043-2.554 2.12-4.665 4.855-4.739 2.735-.073 5.026 1.918 5.14 4.47.008.153.08.297.202.4a.645.645 0 0 0 .446.148c.34-.012.607-.276.6-.594-.21-8.205-6.88-15.004-15.618-15.922v-.68C19.37.785 18.533.005 17.5 0c-1.036 0-1.875.784-1.875 1.75v.68C6.885 3.348.215 10.15.006 18.355c-.013.322.256.594.6.606.346.013.637-.238.65-.56.135-2.537 2.417-4.507 5.137-4.435 2.72.073 4.878 2.161 4.857 4.7 0 .323.28.584.625.584s.625-.261.625-.583c.003-1.9 1.238-3.61 3.125-4.323v16.573c0 .322-.28.583-.625.583s-.625-.261-.625-.583v-1.75c0-.967-.84-1.75-1.875-1.75-1.036 0-1.875.783-1.875 1.75v1.75C10.625 33.172 12.584 35 15 35s4.375-1.828 4.375-4.083V14.344c1.887.713 3.122 2.423 3.125 4.323 0 .322.28.583.625.583zm9.993-4.752c-1.286-1.179-3.056-1.78-4.853-1.646-1.797.133-3.444.986-4.515 2.34v-.609c-.024-4.08-1.684-8.006-4.654-11.002 6.616.643 12.158 4.958 14.022 10.917zM16.875 1.75c0-.322.28-.583.625-.583a.63.63 0 0 1 .445.178.54.54 0 0 1 .18.405v.598a60.595 60.595 0 0 0-.625-.015c-.01 0-.427.008-.625.015V1.75zM11.25 14.583v.609c-1.07-1.354-2.718-2.207-4.515-2.34-1.797-.133-3.567.467-4.853 1.646C3.746 8.538 9.288 4.224 15.904 3.581c-2.97 2.996-4.63 6.921-4.654 11.002zm6.875 16.334c0 1.61-1.4 2.916-3.125 2.916-1.726 0-3.125-1.306-3.125-2.916v-1.75c0-.322.28-.584.625-.584s.625.262.625.584v1.75c0 .966.84 1.75 1.875 1.75 1.036 0 1.875-.784 1.875-1.75V14.04a4.873 4.873 0 0 1 1.25 0v16.877zM17.5 12.833c-1.973.004-3.827.878-5 2.359v-.609c.03-4.101 1.832-8.018 5-10.86 3.168 2.842 4.97 6.759 5 10.86v.609c-1.173-1.48-3.027-2.355-5-2.359zm11.25 14.584c.345 0 .625.26.625.583 0 .322.28.583.625.583s.625-.26.625-.583c-.003-.739-.504-1.396-1.25-1.643v-.69c0-.322-.28-.584-.625-.584s-.625.262-.625.584v.69c-.86.283-1.377 1.104-1.222 1.943.154.839.935 1.452 1.847 1.45.345 0 .625.261.625.583 0 .322-.28.584-.625.584s-.625-.262-.625-.584c0-.322-.28-.583-.625-.583s-.625.261-.625.583c.003.74.504 1.397 1.25 1.643v.69c0 .323.28.584.625.584s.625-.261.625-.583v-.691c.86-.283 1.377-1.104 1.222-1.943-.154-.839-.935-1.451-1.847-1.45-.345 0-.625-.26-.625-.583 0-.322.28-.583.625-.583z"></path>
      <path d="M28.75 23.333c-3.452 0-6.25 2.612-6.25 5.834 0 3.221 2.798 5.833 6.25 5.833S35 32.388 35 29.167c-.004-3.22-2.8-5.83-6.25-5.834zm0 10.5c-2.761 0-5-2.089-5-4.666 0-2.578 2.239-4.667 5-4.667s5 2.09 5 4.667c-.003 2.576-2.24 4.663-5 4.666zM28.125 17.5V21c0 .322.28.583.625.583s.625-.26.625-.583v-3.5c0-.322-.28-.583-.625-.583s-.625.26-.625.583zm2.5 2.333v2.334c0 .322.28.583.625.583s.625-.261.625-.583v-2.334c0-.322-.28-.583-.625-.583s-.625.261-.625.583zm-5 0v2.334c0 .322.28.583.625.583s.625-.261.625-.583v-2.334c0-.322-.28-.583-.625-.583s-.625.261-.625.583zm7.5 1.75v1.75c0 .322.28.584.625.584s.625-.262.625-.584v-1.75c0-.322-.28-.583-.625-.583s-.625.261-.625.583zm-10 0v1.75c0 .322.28.584.625.584s.625-.262.625-.584v-1.75c0-.322-.28-.583-.625-.583s-.625.261-.625.583zM5.625 21c-2.761 0-5 2.09-5 4.667s2.239 4.666 5 4.666 5-2.089 5-4.666c-.003-2.576-2.24-4.664-5-4.667zm0 8.167c-2.071 0-3.75-1.567-3.75-3.5s1.679-3.5 3.75-3.5c2.071 0 3.75 1.567 3.75 3.5-.002 1.932-1.68 3.498-3.75 3.5z"></path>
      <path d="M6.875 25.083c.345 0 .625-.26.625-.583 0-.644-.56-1.167-1.25-1.167 0-.322-.28-.583-.625-.583S5 23.011 5 23.333v.03c-.785.15-1.321.83-1.24 1.575.08.745.75 1.311 1.553 1.312h.625c.172 0 .312.13.312.292 0 .16-.14.291-.313.291H5c0-.322-.28-.583-.625-.583s-.625.261-.625.583C3.75 27.478 4.31 28 5 28c0 .322.28.583.625.583s.625-.26.625-.583v-.03c.785-.15 1.321-.83 1.24-1.575-.08-.744-.75-1.311-1.553-1.312h-.625c-.172 0-.312-.13-.312-.291 0-.161.14-.292.313-.292h.937c0 .322.28.583.625.583zm-.625-5.25V17.5c0-.322-.28-.583-.625-.583S5 17.177 5 17.5v2.333c0 .322.28.584.625.584s.625-.262.625-.584zm-2.5 0v-1.166c0-.322-.28-.584-.625-.584s-.625.262-.625.584v1.166c0 .322.28.584.625.584s.625-.262.625-.584zm5 0v-1.166c0-.322-.28-.584-.625-.584s-.625.262-.625.584v1.166c0 .322.28.584.625.584s.625-.262.625-.584z"></path>
    </g>
  </symbol>
  <symbol viewBox="0 0 20 20" xmlns="http://www.w3.org/2000/svg" id="plusSymbol1">
    <title>BFE74360-5CE7-4331-A37C-765FD154436C</title>
    <g fill="#333">
      <path d="M.707 10.712A.711.711 0 0 1 0 9.995c0-.394.313-.707.707-.707h8.575V.717A.72.72 0 0 1 10 0c.394 0 .707.323.707.717v8.571h8.576c.394 0 .717.313.717.707a.72.72 0 0 1-.717.717h-8.576v8.571a.711.711 0 1 1-1.424 0v-8.571H.707z"></path>
      <path d="M.707 10.712A.711.711 0 0 1 0 9.995c0-.394.313-.707.707-.707h8.575V.717A.72.72 0 0 1 10 0c.394 0 .707.323.707.717v8.571h8.576c.394 0 .717.313.717.707a.72.72 0 0 1-.717.717h-8.576v8.571a.711.711 0 1 1-1.424 0v-8.571H.707z"></path>
      <path d="M.707 10.712A.711.711 0 0 1 0 9.995c0-.394.313-.707.707-.707h8.575V.717A.72.72 0 0 1 10 0c.394 0 .707.323.707.717v8.571h8.576c.394 0 .717.313.717.707a.72.72 0 0 1-.717.717h-8.576v8.571a.711.711 0 1 1-1.424 0v-8.571H.707z"></path>
      <path d="M.707 10.712A.711.711 0 0 1 0 9.995c0-.394.313-.707.707-.707h8.575V.717A.72.72 0 0 1 10 0c.394 0 .707.323.707.717v8.571h8.576c.394 0 .717.313.717.707a.72.72 0 0 1-.717.717h-8.576v8.571a.711.711 0 1 1-1.424 0v-8.571H.707z"></path>
    </g>
  </symbol>
  <symbol viewBox="0 0 16 16" xmlns="http://www.w3.org/2000/svg" id="plusSymbol2">
    <title>46B86D19-D52A-404B-9B9D-DB8E3B0A5FAD</title>
    <g fill="#333">
      <path d="M.926 1.932A.711.711 0 0 1 .933.925a.702.702 0 0 1 1 0L7.995 6.99l6.06-6.06a.72.72 0 0 1 1.015 0 .711.711 0 0 1-.007 1.007l-6.06 6.06 6.063 6.065a.711.711 0 0 1 .008 1.006.72.72 0 0 1-1.014 0L7.997 9.003l-6.061 6.061a.711.711 0 1 1-1.007-1.007l6.06-6.06L.927 1.931z"></path>
      <path d="M.926 1.932A.711.711 0 0 1 .933.925a.702.702 0 0 1 1 0L7.995 6.99l6.06-6.06a.72.72 0 0 1 1.015 0 .711.711 0 0 1-.007 1.007l-6.06 6.06 6.063 6.065a.711.711 0 0 1 .008 1.006.72.72 0 0 1-1.014 0L7.997 9.003l-6.061 6.061a.711.711 0 1 1-1.007-1.007l6.06-6.06L.927 1.931z"></path>
      <path d="M.926 1.932A.711.711 0 0 1 .933.925a.702.702 0 0 1 1 0L7.995 6.99l6.06-6.06a.72.72 0 0 1 1.015 0 .711.711 0 0 1-.007 1.007l-6.06 6.06 6.063 6.065a.711.711 0 0 1 .008 1.006.72.72 0 0 1-1.014 0L7.997 9.003l-6.061 6.061a.711.711 0 1 1-1.007-1.007l6.06-6.06L.927 1.931z"></path>
      <path d="M.926 1.932A.711.711 0 0 1 .933.925a.702.702 0 0 1 1 0L7.995 6.99l6.06-6.06a.72.72 0 0 1 1.015 0 .711.711 0 0 1-.007 1.007l-6.06 6.06 6.063 6.065a.711.711 0 0 1 .008 1.006.72.72 0 0 1-1.014 0L7.997 9.003l-6.061 6.061a.711.711 0 1 1-1.007-1.007l6.06-6.06L.927 1.931z"></path>
    </g>
  </symbol>
</svg>