<?xml version="1.0" encoding="UTF-8"?>
<svg width="9px" height="23px" viewBox="0 0 9 23" version="1.1" xmlns="http://www.w3.org/2000/svg" xmlns:xlink="http://www.w3.org/1999/xlink">
    <!-- Generator: sketchtool 58 (101010) - https://sketch.com -->
    <title>88B1BDC5-5C06-47A8-A1D2-45857D1C0510</title>
    <desc>Created with sketchtool.</desc>
    <g id="Cards" stroke="none" stroke-width="1" fill="none" fill-rule="evenodd">
        <g transform="translate(-498.000000, -311.000000)" fill="#FFFFFF" fill-rule="nonzero" id="Card/Stock">
            <g transform="translate(14.000000, 14.000000)">
                <g transform="translate(361.000000, 271.000000)">
                    <g id="Card">
                        <path d="M138.866762,37.1962771 L133.755775,33.0943022 C133.613772,32.9927472 133.458529,32.973208 133.289906,33.0357254 C133.12147,33.098325 133.036902,33.2115378 133.036902,33.3756924 L133.036902,36.0009333 L116.425916,36.0009333 C116.301628,36.0009333 116.199531,36.0360301 116.119765,36.1063469 C116.040046,36.1766226 116,36.2665197 116,36.3758739 L116,38.6260101 C116,38.7353233 116.03986,38.8252204 116.119719,38.895414 C116.199671,38.9656897 116.301768,39.0007865 116.425869,39.0007865 L133.036996,39.0007865 L133.036996,41.6259865 C133.036996,41.7824649 133.121703,41.8956777 133.290046,41.9657892 C133.458809,42.028553 133.614052,42.0048267 133.756054,41.8956777 L138.867041,37.7465786 C138.955758,37.6685036 139,37.5749121 139,37.4654347 C139,37.3641261 138.955478,37.2743932 138.866762,37.1962771 Z" id="Path" transform="translate(127.500000, 37.500000) rotate(-270.000000) translate(-127.500000, -37.500000) "></path>
                    </g>
                </g>
            </g>
        </g>
    </g>
</svg>