<svg width="0" height="0" class="hidden">
  <symbol viewBox="0 0 47 50" xmlns="http://www.w3.org/2000/svg" id="a-icon-bottles">
    <g fill="#FFF">
    <path d="M47 17.924v-.943c0-4.434-2.647-6.604-4.537-8.208-.19-.188-.567-.471-.851-.848-.19-.19-.19-.472-.19-.661 0-.472.284-.943.662-1.226l.095-.095.284-.283s.094-.094.094-.188c.095-.095.19-.283.284-.378 0-.094.095-.094.095-.189.094-.188.094-.283.188-.471V4.34c0-.19.095-.378.095-.66v-.85C43.22 1.226 41.99 0 40.383 0H29.985c-1.607 0-2.836 1.226-2.836 2.83v.943c0 .19 0 .472.094.661v.094c0 .19.095.283.19.472l.094.094c.095.189.189.284.284.378l.094.094c.095.189.284.283.473.378.378.283.661.754.756 1.132 0 .283 0 .566-.19.754-.188.19-.283.283-.283.378-.189.188-.472.377-.661.566-1.986 1.603-4.632 3.773-4.632 8.207v10.66c-1.702-1.414-2.269-2.64-2.458-3.396.945-.471 1.607-1.415 1.607-2.547 0-1.603-1.229-2.83-2.836-2.83H8.337c-1.607 0-2.836 1.226-2.836 2.83 0 1.132.756 2.17 1.702 2.642-.19.754-.85 1.98-2.458 3.301C1.06 30.755-.17 35.19.02 39.151v.283c0 .472.094.849.189 1.32 0 .095 0 .19.094.378l.284 1.132v.19c.095.282.189.66.284.942 0 .095.094.283.189.378v.094l.189.472C2.855 47.83 5.88 50 9.472 50h9.075c2.08 0 3.97-.755 5.577-2.075C24.975 49.15 26.298 50 27.905 50h14.558C44.92 50 47 48.019 47 45.472V17.924zM2.476 42.358c-.094-.283-.188-.471-.188-.754-.095-.19-.095-.284-.095-.472 0-.189-.095-.283-.095-.472-.094-.754-.189-1.51-.189-2.264 0-.849.095-1.792.284-2.736v-.094c0-.189.095-.378.095-.66 0-.095.094-.284.094-.378.094-.189.094-.377.19-.566.094-.188.188-.377.188-.566 0-.094.095-.189.095-.283h8.035c.567 0 .945.377.945.944v7.547c0 .566-.378.943-.945.943H2.382c.19-.095.094-.189.094-.189zm22.593 1.226c-.094.19-.189.472-.283.66 0 .095-.095.19-.095.19-.284.471-.567.943-.945 1.32l-.284.283c-1.323 1.416-3.025 2.17-4.916 2.17H9.472c-2.552 0-4.727-1.415-6.05-3.773h7.657c1.607 0 2.836-1.227 2.836-2.83v-7.548c0-1.603-1.229-2.83-2.836-2.83h-7.09c.567-.755 1.134-1.51 1.89-2.075 2.175-1.793 2.837-3.49 3.12-4.528h1.229c.567 0 .945-.378.945-.944s-.378-.943-.945-.943H8.243c-.567 0-.945-.378-.945-.944s.378-.943.945-.943h11.344c.566 0 .945.377.945.943s-.379.944-.945.944h-4.538c-.567 0-.945.377-.945.943s.378.944.945.944h3.876c.284 1.037.945 2.735 3.119 4.528.473.377.946.849 1.324 1.32l.094.189c.19.283.378.566.662.85.094.093.094.188.189.376.094.19.189.283.284.472.094.189.283.472.378.66v.095c1.04 2.264 1.323 4.906 1.04 7.264 0 .189-.095.472-.095.66 0 .189-.095.378-.095.566 0 .095 0 .189-.094.283-.095.472-.284.944-.473 1.415-.095 0-.095.095-.189.283zm20.04-3.018h-8.507V19.81h8.507v20.755zm0-22.642H34.711v24.528H45.11v3.02a2.64 2.64 0 0 1-2.647 2.64H27.905c-1.04 0-1.985-.66-2.363-1.603.661-.755 1.134-1.698 1.607-2.736 0 0 0-.094.094-.094 0-.095.095-.19.095-.283.094-.19.094-.378.19-.566v-.095c1.133-3.867.85-9.056-2.175-13.018V16.98c0-3.585 2.08-5.283 3.97-6.792.284-.19.473-.378.662-.566l.378-.378c.567-.66.756-1.415.662-2.264 0-.094-.095-.283-.095-.377h.378c.568 0 .946-.378.946-.944s-.378-.943-.946-.943H30.08c-.188 0-.472-.095-.566-.189l-.095-.094c-.095-.095-.095-.189-.19-.283v-.095c0-.094-.094-.188-.094-.283V2.83c0-.566.379-.944.945-.944h10.399c.567 0 .945.378.945.944v.943c0 .095 0 .283-.095.378 0 0 0 .094-.094.094-.094.094-.094.189-.19.189-.283.188-.472.283-.66.283h-5.389c-.567 0-.945.377-.945.943s.378.944.945.944h4.632c0 .188-.094.377-.094.566 0 .943.283 1.792 1.04 2.358.188.189.472.378.755.566 1.796 1.51 3.876 3.207 3.876 6.792v1.038h-.095z"></path>
    </g>
  </symbol>
  <symbol viewBox="0 0 47 50" xmlns="http://www.w3.org/2000/svg" id="a-icon-butcher">
    <title>D5AAFEB6-A4FE-4D4D-BC47-C465841DDB5E</title>
    <g fill="#FFF">
      <path d="M44.535 2.546L42.007 0 25.371 16.758 0 42.313l5.536 4.867h-.001l.606.534.004.001 1.961 1.724c.384.374.869.561 1.464.561 1.222 0 2.911-.792 5.162-2.401 2.553-1.825 5.65-4.598 8.718-7.806 2.855-2.987 11.936-12.943 9.017-15.813l-2.095-2.132-.318-.324h-.001l-.52-.529c1.63-.357 4.19-1.168 6.621-2.983.19-.161 4.661-3.972 7.176-8.23l.055-.111c.04-.092.45-.885 2.037-.568l.355.071.297-.205c.084-.056.809-.588.913-1.716.127-1.357-.698-2.94-2.452-4.707zM31.267 25.217c.18.175.232 1.387-1.827 4.551-1.661 2.554-4.228 5.688-7.227 8.824-2.996 3.134-6.006 5.832-8.475 7.596-3.058 2.187-4.256 2.18-4.471 1.977l-.815-.717c4.338-1.65 11.123-8.601 12.644-10.197 1.485-1.56 7.947-8.513 9.37-12.85l.787.802.014.014zm-2.435-2.476l.204.206c.051 1.667-3.043 6.661-9.18 13.105-6.084 6.389-11.241 10.02-12.96 10.028l-.135-.118-.096-.084-4.152-3.652 22.85-23.015 3.47 3.53zM45.23 7.325c-2.027-.21-3.084.9-3.404 1.623-2.372 3.984-6.73 7.701-6.734 7.705-2.821 2.107-5.947 2.697-7.008 2.843l-1.501-1.512L42.007 2.446 43.32 3.77c1.756 1.768 1.983 2.806 1.963 3.268a.993.993 0 0 1-.054.288z"></path>
      <path d="M32 17a1 1 0 1 1-2 0 1 1 0 0 1 2 0zM42 6a1 1 0 1 1-2 0 1 1 0 0 1 2 0z"></path>
    </g>
  </symbol>
  <symbol viewBox="0 0 35 35" xmlns="http://www.w3.org/2000/svg" id="a-icon-close">
    <title>2939B414-8A78-40DF-94EA-0E63DD74E012</title>
    <path d="M15.826 17.505L.334 33.106a1.115 1.115 0 0 0 0 1.57 1.093 1.093 0 0 0 1.557 0l15.61-15.719 15.608 15.718a1.093 1.093 0 0 0 1.558 0c.43-.433.43-1.136 0-1.569l-15.492-15.6L34.677 1.893c.43-.434.43-1.136 0-1.57a1.096 1.096 0 0 0-1.557 0L17.5 16.055 1.88.325a1.096 1.096 0 0 0-1.557 0 1.115 1.115 0 0 0 0 1.57l15.503 15.61z"
      fill="#FFF"></path>
  </symbol>
  <symbol viewBox="0 0 43 50" xmlns="http://www.w3.org/2000/svg" id="a-icon-cup">
    <title>F178D735-98C4-425A-BB9A-8D47E43E44B4</title>
    <g fill="#FFF">
      <path d="M21.364 11.745c.175.17.406.255.636.255.23 0 .461-.085.637-.255a.846.846 0 0 0 0-1.228 2.694 2.694 0 0 1 0-3.903 4.39 4.39 0 0 0 0-6.36.923.923 0 0 0-1.273 0 .846.846 0 0 0 0 1.229 2.696 2.696 0 0 1 0 3.903 4.389 4.389 0 0 0 0 6.36zM14 9.555c0 .825.314 1.601.886 2.184a.858.858 0 0 0 1.231 0 .904.904 0 0 0 0-1.258 1.309 1.309 0 0 1-.376-.926c0-.35.132-.678.375-.926a3.141 3.141 0 0 0 0-4.368.856.856 0 0 0-1.23 0 .903.903 0 0 0 0 1.258c.5.51.5 1.341 0 1.852A3.1 3.1 0 0 0 14 9.555zm14 0c0 .825.314 1.601.886 2.184a.858.858 0 0 0 1.231 0 .905.905 0 0 0 0-1.258 1.308 1.308 0 0 1-.377-.926c0-.35.133-.678.376-.926a3.14 3.14 0 0 0 0-4.368.855.855 0 0 0-1.23 0 .903.903 0 0 0 0 1.258c.5.51.5 1.341 0 1.852A3.1 3.1 0 0 0 28 9.555zM13.133 27a.85.85 0 0 0 .51-.172.908.908 0 0 0 .19-1.246c-.908-1.278-1.282-2.97-1.001-4.526a.891.891 0 0 0-.696-1.04.869.869 0 0 0-1.013.716 7.849 7.849 0 0 0 1.307 5.903c.17.237.434.365.703.365z"></path>
      <path d="M33.24 36.686c-.066-.011-.134-.016-.2-.025l.027-.042c.125.007.239.029.369.029 3.137 0 7.432-2.069 8.51-6.543.504-2.085.38-3.637-.376-4.748-.936-1.372-2.563-1.72-4.072-1.97.07-2.918-.53-5.073-1.07-6.118-.164-.314-.659-1.269-1.547-1.269H8.264c-.888 0-1.382.955-1.545 1.269-1.191 2.301-2.674 9.977 3.372 19.37-.064.009-.128.013-.192.024C6.202 37.308 0 38.862 0 42.006 0 46.04 10.65 50 21.5 50S43 46.04 43 42.006c0-3.12-6.115-4.671-9.76-5.32zm4.134-11.504c1.15.195 2.18.445 2.673 1.168.453.664.493 1.79.119 3.343-.793 3.286-3.767 4.828-6.012 5.113 1.99-3.581 2.91-6.862 3.22-9.624zm-28.86-7.393h26.118c.97 1.233 2.947 9.267-3.87 19.008h-.004l-.291.407c-.128.178-.253.355-.388.534-1.974 2.63-5.152 4.203-8.5 4.208h-.007c-3.35-.004-6.53-1.577-8.505-4.208-.139-.185-.269-.369-.4-.552l-.291-.41h-.006C5.569 27.043 7.544 19.02 8.514 17.788zM21.5 48.211c-11.364 0-19.67-4.081-19.67-6.205 0-.851 2.234-2.507 8.392-3.582a3.65 3.65 0 0 1 1.077-.03 11.834 11.834 0 0 0 1.17 1.434c.097.104.203.197.305.296.22.218.444.432.68.632.126.106.257.205.386.306.227.177.457.348.695.509a13.223 13.223 0 0 0 1.171.698c.149.077.298.156.449.227.266.127.538.24.813.348.147.057.29.118.439.17.31.11.627.2.947.285.12.03.236.07.355.098a12.7 12.7 0 0 0 1.34.243v.097h3.049v-.094a12.53 12.53 0 0 0 1.336-.242c.129-.029.252-.071.38-.105.31-.083.619-.171.92-.276.156-.055.305-.118.458-.178.268-.105.533-.216.794-.34.157-.074.31-.154.463-.235a13.285 13.285 0 0 0 1.168-.697c.234-.157.459-.325.682-.5.134-.103.27-.204.398-.314.232-.196.45-.407.667-.62.104-.102.214-.199.316-.306.302-.32.589-.655.856-1.009.005-.008.013-.014.019-.021.096-.128.188-.255.279-.382a3.667 3.667 0 0 1 1.08.03c6.057 1.076 8.256 2.717 8.256 3.558 0 2.124-8.306 6.205-19.67 6.205z"></path>
    </g>
  </symbol>
  <symbol viewBox="0 0 42 50" xmlns="http://www.w3.org/2000/svg" id="a-icon-geinder">
    <title>A28DF9CD-BBCE-49FA-AFC6-706EAD9667FB</title>
    <g fill="#FFF">
      <path d="M41.934 46c-.308-1.544-1.74-2.667-3.404-2.667l-2.275-15.008c1.413-.094 2.65-1 3.058-2.268a3.321 3.321 0 0 0-.477-3.018 3.386 3.386 0 0 0-2.715-1.372h-.882c-.407-6.726-5.665-11.819-12.774-12.435.245-.043.576-.065 1.055-.065h11.34c2.362 0 3.552-.007 3.748-1.887 1.48-.51 2.553-1.891 2.553-3.53 0-2.067-1.696-3.75-3.78-3.75-2.084 0-3.78 1.683-3.78 3.75 0 1.843 1.35 3.372 3.12 3.683-.415.066-1.228.067-1.86.067H23.52c-2.33 0-3.072.747-3.284 1.7-7.458.335-13.057 5.524-13.476 12.467h-.77c-1.673 0-3.106 1.13-3.408 2.688-.198 1.017.051 2.036.683 2.796.584.703 1.454 1.125 2.479 1.177L3.476 43.333H3.47C1.807 43.333.374 44.456.066 46c-.198.99.054 2.002.695 2.777A3.363 3.363 0 0 0 3.36 50h35.282a3.362 3.362 0 0 0 2.597-1.223c.64-.774.894-1.786.696-2.776zM35.281 3.75c0-1.15.942-2.083 2.1-2.083 1.158 0 2.1.934 2.1 2.083 0 1.15-.942 2.083-2.1 2.083-1.158 0-2.1-.934-2.1-2.083zM21 10.833c6.88 0 12.14 4.601 12.572 10.834H8.428C8.86 15.434 14.12 10.833 21 10.833zM39.94 47.72c-.324.39-.796.613-1.3.613H3.36c-.503 0-.975-.224-1.299-.613a1.643 1.643 0 0 1-.346-1.395C1.864 45.57 2.62 45 3.47 45h1.453l2.514-16.634a1.47 1.47 0 0 0-.345-1.186c-.284-.326-.694-.513-1.213-.513-.54 0-1.008-.206-1.317-.577-.317-.38-.434-.885-.33-1.421.148-.762.903-1.336 1.758-1.336h30.131c.533 0 1.04.259 1.358.69.326.441.408.985.232 1.528-.21.656-.91 1.116-1.7 1.116-.43 0-.835.185-1.114.506a1.445 1.445 0 0 0-.338 1.165L37.079 45h1.452c.85 0 1.605.57 1.756 1.326.1.506-.022 1-.347 1.394z"></path>
      <path d="M9.883 30L8 45h27l-1.883-15H9.883zm21.756 1.667l.628 5H10.733l.628-5h20.278zM9.896 43.334l.628-5h21.952l.628 5H9.896z"></path>
      <path d="M18.857 36h4.286c.474 0 .857-.447.857-1 0-.553-.383-1-.857-1h-4.286c-.474 0-.857.447-.857 1 0 .553.383 1 .857 1zm4.286 4h-4.286c-.474 0-.857.447-.857 1 0 .553.383 1 .857 1h4.286c.474 0 .857-.447.857-1 0-.553-.383-1-.857-1zm-8.671-25.834c-1.062.693-1.864 1.57-2.386 2.61-.22.437-.004.95.48 1.147.13.053.263.077.396.077.366 0 .717-.19.878-.51.382-.762.976-1.408 1.763-1.922.43-.28.526-.823.214-1.21-.312-.386-.912-.475-1.345-.192zM21 13c-1.11 0-2.169.066-3.146.197-.546.074-.924.534-.843 1.03.073.449.5.773.988.773.05 0 .098-.004.147-.01.88-.119 1.841-.178 2.854-.178.553 0 1-.405 1-.906 0-.5-.447-.906-1-.906zm.75 15h4.5c.415 0 .75-.447.75-1 0-.553-.335-1-.75-1h-4.5c-.415 0-.75.447-.75 1 0 .553.335 1 .75 1zM30 28h2a.999.999 0 1 0 0-2h-2a1 1 0 1 0 0 2z"></path>
    </g>
  </symbol>
  <symbol viewBox="0 0 28 29" xmlns="http://www.w3.org/2000/svg" id="a-icon-home">
    <title>04B0C0AA-DD5A-46F8-B735-6E582C82ADE5</title>
    <path d="M27.846 13.233l-4.191-4.006V2.666h-4.828v1.948L14 0 .154 13.233a.508.508 0 0 0-.025.702.475.475 0 0 0 .683.026l1.602-1.531V29h23.173V12.43l1.602 1.53a.473.473 0 0 0 .682-.025.507.507 0 0 0-.025-.702zm-8.053-9.574h2.897v4.646l-2.897-2.768V3.659zm-8.69 24.347V17.541a.46.46 0 0 1 .453-.466h4.888a.46.46 0 0 1 .452.466v10.465h-5.793zm13.518 0h-6.76V17.541c0-.805-.635-1.46-1.417-1.46h-4.888c-.783 0-1.418.655-1.418 1.46v10.465H3.379v-16.5l10.62-10.15 6.895 6.589 2.761 2.638.966.923v16.5z"
      fill="#5A5A5A"></path>
  </symbol>
  <symbol viewBox="0 0 31 71" xmlns="http://www.w3.org/2000/svg" id="a-icon-pepper(1)">
    <title>962CA266-A4F3-477C-990D-2459FB667FC8</title>
    <g fill="#C5C1C1">
      <path d="M13.444 37.454h3.667c2.696 0 4.889-2.12 4.889-4.727S19.807 28 17.111 28H11v13h2.444v-3.546zm0-7.09h3.667c1.348 0 2.445 1.06 2.445 2.363 0 1.304-1.097 2.364-2.445 2.364h-3.667v-4.727z"></path>
      <path d="M30.079 58.745a1.28 1.28 0 0 1 0-1.523 4.664 4.664 0 0 0 .825-3.733c-.03-.141-.081-.271-.122-.407.129-.346.217-.683.217-1.016v-.417c0-2.078-.465-4.173-1.38-6.228-2.94-6.592-2.93-12.01.03-18.699.896-2.024 1.35-4.094 1.35-6.155v-1.634c0-.958-.438-1.854-1.303-2.674A8.182 8.182 0 0 0 31 11.833c0-4.566-3.745-8.283-8.345-8.283h-3.577V0h-7.154v3.55H8.346c-4.6 0-8.345 3.717-8.345 8.284 0 1.628.483 3.143 1.303 4.425C.44 17.078 0 17.975 0 18.934v1.626c0 2.065.457 4.14 1.356 6.169 2.956 6.667 2.96 12.084.018 18.7C.463 47.48.001 49.57.001 51.641v.426c0 .33.088.67.217 1.014-.04.135-.093.265-.122.406a4.666 4.666 0 0 0 .825 3.735 1.279 1.279 0 0 1 0 1.522C.17 59.764-.116 61 .073 62.25a2.49 2.49 0 0 0-.072.566V71H31v-8.184a2.5 2.5 0 0 0-.073-.566c.19-1.249-.095-2.486-.847-3.505zM2.75 62.773a2.333 2.333 0 0 1-.301-.726l-.022-.096a2.35 2.35 0 0 1 .419-1.808c.224-.304.391-.634.51-.976h3.798c.66 0 1.193-.53 1.193-1.184 0-.654-.533-1.183-1.193-1.183h-3.8a3.627 3.627 0 0 0-.51-.976 2.346 2.346 0 0 1-.41-1.876 1.96 1.96 0 0 1 .109-.357l.03-.072.014-.025c.07-.16.17-.298.27-.436.37-.475.93-.821 1.57-.942.048-.007.093-.016.142-.02.12-.015.237-.03.359-.03h21.145c.121 0 .24.015.358.03.047.005.094.014.142.021.639.121 1.2.467 1.57.943.1.137.197.273.267.43.005.012.012.022.018.034l.029.066c.046.116.085.235.11.36a2.342 2.342 0 0 1-.412 1.874 3.675 3.675 0 0 0-.51.976H16.693c-.66 0-1.193.529-1.193 1.183 0 .655.533 1.183 1.193 1.183h10.953c.118.343.286.673.51.977a2.34 2.34 0 0 1 .419 1.808l-.022.094a2.33 2.33 0 0 1-.302.726c-.45.677-1.275 1.129-2.177 1.129H4.926c-.901 0-1.726-.452-2.176-1.127zM14.308 2.367h2.384V3.55h-2.384V2.367zm-5.962 3.55h14.308c3.287 0 5.96 2.654 5.96 5.916 0 1.54-.61 2.935-1.587 3.99-.096.102-.19.204-.291.3a5.976 5.976 0 0 1-.924.709 6 6 0 0 1-.743.4c-.086.039-.175.07-.263.105a6.02 6.02 0 0 1-.911.281c-.046.01-.093.015-.14.023a6.127 6.127 0 0 1-1.101.109H8.347a5.91 5.91 0 0 1-1.102-.112c-.047-.008-.094-.013-.14-.022a5.777 5.777 0 0 1-.911-.281c-.088-.035-.178-.065-.264-.104a5.933 5.933 0 0 1-.742-.402 6.167 6.167 0 0 1-.924-.709 5.634 5.634 0 0 1-.291-.3c-.976-1.052-1.587-2.446-1.587-3.987 0-3.262 2.674-5.916 5.96-5.916zm-4.79 40.467c3.244-7.293 3.24-13.264-.018-20.609-.765-1.726-1.152-3.48-1.152-5.215v-1.626c0-.255.167-.558.476-.874.37.322.77.61 1.193.864l.034.02c.195.115.393.221.598.32.03.016.063.03.093.046.188.089.379.17.574.246l.162.059c.178.064.356.124.539.177.082.023.166.042.25.064.16.04.317.08.481.11.127.026.257.04.388.06.126.018.25.04.377.052.263.025.529.039.795.039h14.308c.266 0 .532-.014.796-.04.127-.012.251-.035.378-.052.128-.02.259-.035.386-.06.163-.03.323-.07.483-.111.083-.021.167-.04.25-.064.182-.052.36-.112.538-.176.053-.019.109-.038.162-.06.195-.074.385-.157.574-.246l.094-.045c.204-.1.402-.205.597-.32l.033-.02a8.452 8.452 0 0 0 1.195-.864c.307.317.474.62.474.874v1.634c0 1.73-.386 3.482-1.149 5.204-3.26 7.367-3.267 13.337-.026 20.607.578 1.3.946 2.61 1.097 3.914a4.782 4.782 0 0 0-2.306-.592H4.77c-.824 0-1.614.212-2.307.593.15-1.302.516-2.61 1.093-3.909zm25.059 22.25H2.385V65.62c.71.411 1.528.646 2.385.646h21.46c.857 0 1.675-.235 2.385-.646v3.012z"></path>
    </g>
  </symbol>
  <symbol viewBox="0 0 51 117" xmlns="http://www.w3.org/2000/svg" id="a-icon-pepper(2)">
    <title>DA7E4E23-5471-4AEB-870C-6813D230C89D</title>
    <g fill="#578B84">
      <path d="M22 62.272h6c4.411 0 8-3.424 8-7.636C36 50.425 32.411 47 28 47H18v21h4v-5.728zm0-11.454h6c2.206 0 4 1.712 4 3.818s-1.794 3.818-4 3.818h-6v-7.636z"></path>
      <path d="M49.484 96.806a2.112 2.112 0 0 1 0-2.51 7.695 7.695 0 0 0 1.358-6.152c-.048-.232-.134-.447-.2-.67.212-.57.356-1.126.356-1.674v-.689c0-3.424-.764-6.876-2.27-10.262-4.836-10.864-4.82-19.791.05-30.814C50.252 40.7 51 37.288 51 33.893V31.2c0-1.58-.722-3.056-2.144-4.407A13.5 13.5 0 0 0 51 19.5c0-7.525-6.161-13.65-13.73-13.65h-5.885V0H19.616v5.85H13.73C6.162 5.85.001 11.975.001 19.5c0 2.684.795 5.18 2.144 7.293C.724 28.143.002 29.62.002 31.2v2.681c0 3.403.751 6.823 2.231 10.165 4.863 10.987 4.868 19.914.03 30.816C.763 78.24.002 81.685.002 85.098v.702c0 .546.144 1.104.356 1.671-.066.223-.152.437-.2.67a7.7 7.7 0 0 0 1.358 6.154 2.11 2.11 0 0 1 0 2.509C.278 98.484-.19 100.521.12 102.58a4.109 4.109 0 0 0-.118.934V117h50.996v-13.486c0-.345-.055-.649-.12-.934.313-2.057-.156-4.095-1.394-5.774zm-44.96 6.637a3.848 3.848 0 0 1-.495-1.197l-.036-.158a3.877 3.877 0 0 1 .689-2.98 6.059 6.059 0 0 0 .84-1.608h6.248a1.955 1.955 0 0 0 1.962-1.95c0-1.078-.877-1.95-1.962-1.95H5.52a5.98 5.98 0 0 0-.84-1.608 3.87 3.87 0 0 1-.677-3.091c.041-.203.104-.398.18-.59l.051-.118c.007-.014.017-.027.022-.041.116-.264.278-.491.444-.718a4.29 4.29 0 0 1 2.583-1.552c.079-.012.153-.027.233-.035.197-.023.39-.047.591-.047h34.787c.2 0 .394.024.589.049.078.008.154.023.233.034 1.052.2 1.974.77 2.585 1.555.163.225.324.449.438.707.008.02.02.036.03.056l.047.109c.076.19.14.387.18.592.22 1.1-.02 2.198-.677 3.089a6.059 6.059 0 0 0-.84 1.608H27.463a1.955 1.955 0 0 0-1.962 1.95c0 1.08.878 1.95 1.962 1.95h18.02a5.97 5.97 0 0 0 .84 1.61 3.86 3.86 0 0 1 .688 2.979l-.035.156c-.098.43-.27.833-.497 1.195-.741 1.116-2.098 1.86-3.581 1.86H8.104c-1.483.001-2.84-.744-3.58-1.856zM23.54 3.9h3.922v1.95H23.54V3.9zm-9.81 5.85h23.54c5.408 0 9.807 4.373 9.807 9.75 0 2.538-1.006 4.836-2.613 6.573-.157.17-.311.338-.478.496a9.836 9.836 0 0 1-1.52 1.168 9.867 9.867 0 0 1-1.222.66c-.141.063-.288.116-.433.172a9.891 9.891 0 0 1-1.5.464c-.074.016-.152.024-.228.038-.587.107-1.191.179-1.813.179H13.732a9.707 9.707 0 0 1-1.814-.184c-.077-.013-.153-.021-.23-.036a9.492 9.492 0 0 1-1.498-.465c-.145-.056-.293-.107-.434-.171a9.756 9.756 0 0 1-1.222-.661 12.55 12.55 0 0 1-.517-.345 10.15 10.15 0 0 1-1.003-.823 9.278 9.278 0 0 1-.478-.495c-1.605-1.734-2.61-4.032-2.61-6.57-.001-5.376 4.398-9.75 9.805-9.75zM5.85 76.436c5.337-12.018 5.328-21.857-.03-33.962-1.26-2.844-1.896-5.734-1.896-8.593v-2.68c0-.42.274-.92.783-1.44.61.53 1.267 1.006 1.962 1.423.02.012.037.024.057.033.32.19.647.365.983.529.051.026.104.049.155.075.308.146.622.28.943.405l.267.097c.293.106.586.205.886.291.136.039.273.07.41.106.263.066.524.132.793.183.21.04.423.066.638.097.207.03.41.066.621.086.432.04.87.064 1.308.064h23.54c.439 0 .876-.023 1.31-.066.209-.02.414-.056.621-.086.212-.031.427-.057.636-.097.268-.051.531-.117.794-.184.138-.035.275-.066.41-.105.3-.086.595-.185.887-.29.088-.032.179-.063.267-.098.321-.123.633-.26.943-.406.051-.025.103-.048.155-.074.335-.164.662-.34.983-.528.017-.012.037-.022.055-.033.697-.42 1.354-.893 1.965-1.424.506.523.78 1.022.78 1.44v2.694c0 2.85-.635 5.737-1.89 8.574-5.363 12.141-5.376 21.978-.044 33.959.952 2.141 1.556 4.302 1.805 6.45a7.857 7.857 0 0 0-3.793-.975H7.847a7.857 7.857 0 0 0-3.796.976c.248-2.145.85-4.302 1.8-6.441zM47.076 113.1H3.925v-4.965a7.8 7.8 0 0 0 3.922 1.065h35.306c1.41 0 2.756-.386 3.923-1.065v4.965z"></path>
    </g>
  </symbol>
  <symbol viewBox="0 0 22 50" xmlns="http://www.w3.org/2000/svg" id="a-icon-pepper">
    <title>05E242C5-4BE7-4C48-95A1-4E24DEE6312D</title>
    <g fill="#FFF">
      <path d="M8.778 26.545h2.667c1.96 0 3.555-1.467 3.555-3.272C15 21.468 13.405 20 11.445 20H7v9h1.778v-2.455zm0-4.909h2.667c.98 0 1.777.734 1.777 1.637 0 .902-.797 1.636-1.777 1.636H8.778v-3.273z"></path>
      <path d="M21.346 41.37a.896.896 0 0 1 0-1.073 3.265 3.265 0 0 0 .586-2.629c-.02-.099-.058-.19-.087-.286.092-.244.154-.481.154-.716v-.294c0-1.463-.33-2.938-.98-4.385-2.085-4.643-2.078-8.458.023-13.169.635-1.425.958-2.883.958-4.334v-1.15c0-.676-.312-1.307-.925-1.884A5.73 5.73 0 0 0 22 8.333C22 5.117 19.342 2.5 16.077 2.5h-2.539V0H8.462v2.5H5.923C2.658 2.5.001 5.117.001 8.334c0 1.146.342 2.213.924 3.116-.613.577-.924 1.208-.924 1.884v1.145c0 1.454.324 2.916.962 4.344 2.098 4.695 2.1 8.51.013 13.17-.647 1.443-.975 2.915-.975 4.374v.3c0 .233.062.471.154.714-.03.095-.066.187-.087.286-.19.933.019 1.867.586 2.63a.895.895 0 0 1 0 1.072 3.262 3.262 0 0 0-.602 2.469 1.74 1.74 0 0 0-.051.399V50h21.998v-5.763c0-.147-.023-.278-.051-.4a3.254 3.254 0 0 0-.602-2.467zM1.952 44.207a1.636 1.636 0 0 1-.214-.512l-.016-.067a1.645 1.645 0 0 1 .298-1.274 2.58 2.58 0 0 0 .362-.687h2.695a.84.84 0 0 0 .847-.834.839.839 0 0 0-.847-.833H2.381a2.547 2.547 0 0 0-.362-.687 1.642 1.642 0 0 1-.292-1.321 1.47 1.47 0 0 1 .078-.252l.022-.05c.002-.007.007-.012.009-.018.05-.113.12-.21.191-.307a1.853 1.853 0 0 1 1.115-.663c.034-.005.066-.012.1-.015.085-.01.169-.02.255-.02h15.006c.087 0 .17.01.254.02.034.004.067.01.101.015.454.085.851.329 1.115.664.07.097.14.192.189.303.003.008.008.015.013.024l.02.046c.033.082.06.166.078.253.095.47-.009.94-.292 1.32a2.58 2.58 0 0 0-.362.688h-7.773a.84.84 0 0 0-.846.833.84.84 0 0 0 .846.833h7.774c.083.242.203.474.362.688.274.368.375.82.297 1.273l-.015.067a1.64 1.64 0 0 1-.215.51c-.32.478-.905.796-1.545.796H3.496c-.64 0-1.225-.318-1.544-.793zm8.202-42.54h1.692V2.5h-1.692v-.833zm-4.23 2.5h10.153c2.333 0 4.23 1.869 4.23 4.166a4.106 4.106 0 0 1-1.127 2.81 4.1 4.1 0 0 1-.206.211 4.235 4.235 0 0 1-.656.5 4.27 4.27 0 0 1-.527.282c-.06.026-.124.049-.187.073-.209.08-.423.151-.647.198-.032.007-.065.01-.098.016a4.38 4.38 0 0 1-.782.077H5.924c-.268 0-.529-.03-.783-.079l-.099-.015a4.123 4.123 0 0 1-.646-.199c-.063-.024-.127-.045-.187-.073a4.221 4.221 0 0 1-.528-.282 4.37 4.37 0 0 1-.656-.499 3.982 3.982 0 0 1-.206-.212 4.102 4.102 0 0 1-1.126-2.808c0-2.297 1.898-4.166 4.23-4.166zm-3.4 28.498c2.302-5.136 2.299-9.34-.013-14.514-.543-1.215-.818-2.45-.818-3.672v-1.145c0-.18.119-.393.338-.616.263.227.546.43.846.609l.025.014c.138.08.28.156.424.226.022.01.045.02.067.032a6.1 6.1 0 0 0 .407.173l.115.041c.126.045.253.088.382.125.058.016.118.03.177.045.113.028.226.056.342.078.09.018.182.028.275.042.09.012.177.028.268.036.186.018.375.028.564.028h10.154c.19 0 .378-.01.565-.029.09-.008.178-.024.268-.036.091-.014.184-.025.274-.042.116-.022.23-.05.343-.078l.177-.045c.13-.037.256-.08.382-.124.038-.014.077-.027.115-.042.139-.053.274-.111.407-.174l.067-.031c.145-.07.286-.145.424-.226l.024-.014c.3-.18.584-.382.847-.609.218.224.337.437.337.616v1.151c0 1.218-.274 2.452-.816 3.664-2.313 5.189-2.319 9.393-.018 14.513.41.915.67 1.838.778 2.756A3.414 3.414 0 0 0 18.615 35H3.385c-.585 0-1.145.149-1.637.418a9.396 9.396 0 0 1 .776-2.753zm17.783 15.668H1.693v-2.121a3.39 3.39 0 0 0 1.692.455h15.23a3.39 3.39 0 0 0 1.692-.455v2.121z"></path>
    </g>
  </symbol>
  <symbol viewBox="0 0 71 71" xmlns="http://www.w3.org/2000/svg" id="a-icon-plate(1)">
    <title>50E9FBED-25F2-4102-8E6C-B46F6CA213DD</title>
    <g fill="#C5C1C1">
      <path d="M35.5 0C15.926 0 0 15.926 0 35.5 0 55.074 15.926 71 35.5 71 55.074 71 71 55.074 71 35.5 71 15.926 55.074 0 35.5 0zm0 68.418c-18.151 0-32.918-14.767-32.918-32.918S17.349 2.582 35.5 2.582 68.418 17.349 68.418 35.5c0 18.152-14.767 32.918-32.918 32.918z"></path>
      <path d="M40.79 35.297l-9.296 7.384a1.282 1.282 0 0 0-.188 1.841 1.37 1.37 0 0 0 1.046.478c.302 0 .604-.097.857-.296l9.297-7.384c.577-.46.66-1.282.188-1.842a1.385 1.385 0 0 0-1.903-.181zm1.716 7.023c.577-.46.66-1.282.188-1.843a1.388 1.388 0 0 0-1.903-.182l-9.297 7.385a1.282 1.282 0 0 0-.188 1.842c.268.314.656.478 1.046.478.302 0 .605-.097.857-.297l9.297-7.383z"></path>
      <path d="M45.93 39.298l-7.467 6.368a1.355 1.355 0 0 0-.176 1.853 1.234 1.234 0 0 0 1.783.182l7.467-6.368c.54-.462.619-1.29.176-1.853a1.237 1.237 0 0 0-1.783-.182zm-.14 6.999l-9.296 7.383a1.282 1.282 0 0 0-.188 1.842c.267.314.656.478 1.046.478.302 0 .604-.097.857-.297l9.297-7.383c.578-.46.66-1.283.188-1.842a1.384 1.384 0 0 0-1.903-.181zM9.43 30.703a1.3 1.3 0 0 0 1.283 1.536 1.3 1.3 0 0 0 .838-.325c.9.966 1.97 1.703 3.129 2.179.038.02.063.05.103.066.08.032.165.043.245.072.176.064.352.122.53.173-1.967 2.384-2.501 5.947-1.074 9.179 1.488 3.369 4.676 5.418 7.9 5.417 1.013 0 2.03-.202 2.998-.628 4.055-1.787 5.763-6.841 3.809-11.265-.937-2.121-2.57-3.791-4.597-4.701a8.396 8.396 0 0 0-1.133-.404c.148-.18.29-.366.422-.56.04-.056.075-.116.113-.175.146-.227.282-.464.407-.708.041-.083.085-.164.124-.248a8.31 8.31 0 0 0 .37-.921l.002-.007c.019-.058.03-.12.049-.177.084-.276.154-.555.21-.837.009-.048.027-.094.034-.142.005-.018-.003-.034 0-.053a9.126 9.126 0 0 0-.29-4.306c-.002-.012 0-.022-.003-.032-.009-.025-.02-.048-.028-.073a9.782 9.782 0 0 0-.351-.935 9.7 9.7 0 0 0-.82-1.485c-.241-.359-.524-.678-.807-.995-.084-.094-.149-.202-.237-.292l-.002-.001a8.903 8.903 0 0 0-2.732-1.926 8.405 8.405 0 0 0-.821-.317 1.296 1.296 0 0 0-.266-1.423 1.302 1.302 0 0 0-1.84-.016c-.347.341-.674.703-1.003 1.065-.812.07-1.61.269-2.37.604-1.988.876-3.475 2.547-4.186 4.706-.68 2.07-.56 4.35.33 6.438-.12.501-.241 1.004-.335 1.517zm17.379 7.452c1.375 3.114.264 6.63-2.475 7.837-2.74 1.208-6.092-.344-7.466-3.458-1.375-3.114-.265-6.632 2.475-7.838a4.856 4.856 0 0 1 1.964-.41 5.42 5.42 0 0 1 2.22.49c1.44.647 2.605 1.848 3.282 3.379zM11.91 23.557c.476-1.449 1.458-2.566 2.762-3.139a4.848 4.848 0 0 1 1.871-.401h.039c.13.001.246.018.37.026a5.006 5.006 0 0 1 .998.156c.303.079.605.166.903.3a6.31 6.31 0 0 1 1.926 1.355c.003.003.004.008.007.01a6.8 6.8 0 0 1 1.35 2.012c.675 1.528.776 3.192.288 4.686-.006.022-.018.042-.024.064a5.61 5.61 0 0 1-.507 1.082 5.25 5.25 0 0 1-.477.675c-.03.035-.055.076-.085.11a4.865 4.865 0 0 1-1.67 1.22 4.79 4.79 0 0 1-1.002.311c-.062.013-.126.016-.189.026-.258.04-.52.06-.782.059-.09 0-.183 0-.275-.006a5.356 5.356 0 0 1-.929-.128c-.055-.013-.11-.038-.166-.053-1.278-.349-2.463-1.17-3.334-2.347-.085-.113-.172-.224-.249-.344a7.183 7.183 0 0 1-.497-.899l-.058-.118c-.659-1.518-.758-3.171-.27-4.657zm26.56 35.451c-1.325.12-2.668.136-3.976.053-.794-.043-1.442.557-1.491 1.35-.048.798.541 1.482 1.315 1.533a28.42 28.42 0 0 0 4.4-.061c.775-.07 1.345-.771 1.276-1.565-.068-.794-.758-1.393-1.523-1.31zm17.961-34.694c.252.439.718.686 1.2.686.225 0 .454-.054.666-.17a1.32 1.32 0 0 0 .53-1.82 27.492 27.492 0 0 0-2.374-3.494 1.394 1.394 0 0 0-1.924-.234 1.315 1.315 0 0 0-.24 1.877 24.86 24.86 0 0 1 2.142 3.155zm1.659 3.349a20.547 20.547 0 0 1 1.1 3.35c.135.584.727.987 1.389.987.092 0 .189-.009.284-.026.768-.134 1.264-.786 1.108-1.452a22.837 22.837 0 0 0-1.22-3.717c-.273-.638-1.092-.966-1.824-.727-.735.237-1.111.948-.838 1.585zM45.279 57.108a21.48 21.48 0 0 1-3.335 1.208c-.665.18-1.072.918-.907 1.648.139.62.647 1.036 1.204 1.036.098 0 .199-.013.298-.04a23.546 23.546 0 0 0 3.7-1.34c.632-.29.93-1.087.664-1.782-.263-.693-.992-1.025-1.624-.73zm14.719-16.066c-.719-.177-1.452.223-1.64.888a21.788 21.788 0 0 1-1.246 3.327c-.296.63.015 1.366.696 1.64.175.07.358.103.535.103.519 0 1.013-.28 1.233-.749a24.039 24.039 0 0 0 1.379-3.69c.19-.663-.24-1.345-.957-1.519zm-24.59-29.316h.028l.186-.001h.027c1.25 0 2.507.087 3.741.26.07.011.137.015.205.015.688 0 1.289-.488 1.39-1.166.113-.745-.42-1.436-1.19-1.544A29.73 29.73 0 0 0 35.65 9h-.03l-.24.001c-.78.016-1.396.638-1.38 1.39.014.743.642 1.335 1.408 1.335zm16.635 5.922c.224.236.51.352.797.352a1.1 1.1 0 0 0 .843-.404c.44-.517.42-1.333-.045-1.823a24.51 24.51 0 0 0-2.82-2.544c-.528-.404-1.25-.26-1.612.328-.364.586-.232 1.39.294 1.794a22.212 22.212 0 0 1 2.543 2.297zm-9.154-5.118c1.127.356 2.24.807 3.306 1.34.177.087.363.13.548.13a1.25 1.25 0 0 0 1.13-.728c.303-.642.043-1.418-.58-1.73a24.927 24.927 0 0 0-3.668-1.485c-.662-.209-1.365.176-1.569.858-.205.681.168 1.404.833 1.615zm19.079 21.81A1.418 1.418 0 0 0 60.477 33a1.412 1.412 0 0 0-1.357 1.47 25.624 25.624 0 0 1-.112 3.978A1.414 1.414 0 0 0 60.427 40a1.42 1.42 0 0 0 1.416-1.26 28.723 28.723 0 0 0 .125-4.4zm-4.585 13.835c-.617-.334-1.434-.175-1.825.355a21.706 21.706 0 0 1-2.233 2.583c-.48.474-.422 1.194.13 1.607.25.188.56.28.868.28.368 0 .737-.132.997-.392a23.96 23.96 0 0 0 2.475-2.86c.391-.532.206-1.236-.412-1.573zm-42 1.336c-.402-.53-1.211-.67-1.806-.315-.597.354-.757 1.07-.356 1.598.754.996 1.602 1.95 2.52 2.834.257.248.608.372.958.372.315 0 .63-.1.88-.304.528-.43.565-1.159.078-1.627a21.903 21.903 0 0 1-2.274-2.558zm7.981 6.454a21.35 21.35 0 0 1-3.089-1.415c-.591-.33-1.246-.053-1.467.611-.223.666.075 1.472.662 1.798 1.11.62 2.263 1.148 3.42 1.569.202.074.403.08.587.03.375-.1.675-.434.763-.907.132-.708-.26-1.463-.876-1.686zm7.664 2.271a21.022 21.022 0 0 1-3.345-1.14c-.64-.28-1.353.079-1.6.798-.245.72.07 1.532.706 1.81 1.2.526 2.447.951 3.71 1.264.09.022.178.032.266.032.568 0 1.08-.445 1.206-1.1.146-.753-.277-1.5-.943-1.664zM13.876 45.217a22.456 22.456 0 0 1-1.307-3.313c-.202-.665-.931-1.048-1.624-.853-.695.193-1.094.888-.893 1.551.383 1.256.87 2.492 1.448 3.677.223.454.695.721 1.189.721.186 0 .374-.038.554-.118.657-.293.94-1.04.633-1.665zm37.26 8.098a21.41 21.41 0 0 1-2.595 2.212c-.533.386-.701 1.206-.374 1.835.213.411.587.638.967.638.201 0 .405-.064.59-.197a23.774 23.774 0 0 0 2.876-2.45c.476-.476.536-1.317.132-1.88s-1.116-.633-1.596-.158zM20.321 16c.266 0 .535-.086.767-.265a24.564 24.564 0 0 1 3.191-2.07c.649-.352.907-1.2.578-1.895-.33-.692-1.123-.97-1.775-.617a27.062 27.062 0 0 0-3.53 2.292c-.593.453-.73 1.333-.304 1.966.259.383.662.589 1.073.589z"></path>
      <path d="M10.793 39.988a1.4 1.4 0 0 0 1.195-1.576 27.103 27.103 0 0 1-.215-3.395l.007-.58A1.4 1.4 0 0 0 10.423 33c-.719.007-1.4.603-1.416 1.377l-.007.64c0 1.26.08 2.523.24 3.757a1.393 1.393 0 0 0 1.553 1.214zM28.225 13c.126 0 .253-.024.38-.074a19.329 19.329 0 0 1 3.366-.985c.668-.132 1.12-.893 1.013-1.698-.11-.806-.73-1.355-1.405-1.224-1.263.249-2.52.616-3.734 1.095-.642.254-.995 1.088-.784 1.866.17.625.65 1.02 1.164 1.02zm1.313 1.63c-3.985 1.768-5.663 6.77-3.743 11.15 1.468 3.35 4.623 5.38 7.758 5.38.63 0 1.257-.09 1.872-.26 1.628 2.574 4.343 4.101 7.09 4.1.994 0 1.994-.2 2.946-.621 3.986-1.769 5.665-6.771 3.744-11.15-.922-2.099-2.526-3.752-4.519-4.652-1.67-.755-3.45-.903-5.115-.456-2.226-3.553-6.43-5.087-10.033-3.49zm-1.402 10.112c-1.352-3.082-.26-6.564 2.433-7.757a4.773 4.773 0 0 1 1.946-.412c1.78 0 3.553.971 4.716 2.64l-.002.002a7.419 7.419 0 0 0-.966.824 7.864 7.864 0 0 0-1.883 3.108c-.55 1.682-.562 3.505-.068 5.248.01.037.013.073.024.11-2.435.394-5.034-1.105-6.2-3.763zm15.5-3.819c1.415.64 2.562 1.828 3.226 3.345 1.353 3.081.26 6.562-2.433 7.757-2.693 1.195-5.987-.341-7.338-3.423a6.566 6.566 0 0 1-.362-4.288c.026-.098.036-.2.067-.296.087-.275.206-.533.33-.787.035-.07.058-.148.095-.215.142-.26.313-.5.495-.731.037-.048.065-.104.105-.149.193-.229.416-.43.648-.62.042-.033.076-.077.12-.109a4.68 4.68 0 0 1 .915-.547l.049-.021a4.731 4.731 0 0 1 1.904-.4 5.224 5.224 0 0 1 2.18.484z"></path>
      <path d="M35.5 0C15.926 0 0 15.926 0 35.5 0 55.074 15.926 71 35.5 71 55.074 71 71 55.074 71 35.5 71 15.926 55.074 0 35.5 0zm0 68.418c-18.151 0-32.918-14.767-32.918-32.918S17.349 2.582 35.5 2.582 68.418 17.349 68.418 35.5c0 18.152-14.767 32.918-32.918 32.918z"></path>
      <path d="M40.79 35.297l-9.296 7.384a1.282 1.282 0 0 0-.188 1.841 1.37 1.37 0 0 0 1.046.478c.302 0 .604-.097.857-.296l9.297-7.384c.577-.46.66-1.282.188-1.842a1.385 1.385 0 0 0-1.903-.181zm1.716 7.023c.577-.46.66-1.282.188-1.843a1.388 1.388 0 0 0-1.903-.182l-9.297 7.385a1.282 1.282 0 0 0-.188 1.842c.268.314.656.478 1.046.478.302 0 .605-.097.857-.297l9.297-7.383z"></path>
      <path d="M45.93 39.298l-7.467 6.368a1.355 1.355 0 0 0-.176 1.853 1.234 1.234 0 0 0 1.783.182l7.467-6.368c.54-.462.619-1.29.176-1.853a1.237 1.237 0 0 0-1.783-.182zm-.14 6.999l-9.296 7.383a1.282 1.282 0 0 0-.188 1.842c.267.314.656.478 1.046.478.302 0 .604-.097.857-.297l9.297-7.383c.578-.46.66-1.283.188-1.842a1.384 1.384 0 0 0-1.903-.181zM9.43 30.703a1.3 1.3 0 0 0 1.283 1.536 1.3 1.3 0 0 0 .838-.325c.9.966 1.97 1.703 3.129 2.179.038.02.063.05.103.066.08.032.165.043.245.072.176.064.352.122.53.173-1.967 2.384-2.501 5.947-1.074 9.179 1.488 3.369 4.676 5.418 7.9 5.417 1.013 0 2.03-.202 2.998-.628 4.055-1.787 5.763-6.841 3.809-11.265-.937-2.121-2.57-3.791-4.597-4.701a8.396 8.396 0 0 0-1.133-.404c.148-.18.29-.366.422-.56.04-.056.075-.116.113-.175.146-.227.282-.464.407-.708.041-.083.085-.164.124-.248a8.31 8.31 0 0 0 .37-.921l.002-.007c.019-.058.03-.12.049-.177.084-.276.154-.555.21-.837.009-.048.027-.094.034-.142.005-.018-.003-.034 0-.053a9.126 9.126 0 0 0-.29-4.306c-.002-.012 0-.022-.003-.032-.009-.025-.02-.048-.028-.073a9.782 9.782 0 0 0-.351-.935 9.7 9.7 0 0 0-.82-1.485c-.241-.359-.524-.678-.807-.995-.084-.094-.149-.202-.237-.292l-.002-.001a8.903 8.903 0 0 0-2.732-1.926 8.405 8.405 0 0 0-.821-.317 1.296 1.296 0 0 0-.266-1.423 1.302 1.302 0 0 0-1.84-.016c-.347.341-.674.703-1.003 1.065-.812.07-1.61.269-2.37.604-1.988.876-3.475 2.547-4.186 4.706-.68 2.07-.56 4.35.33 6.438-.12.501-.241 1.004-.335 1.517zm17.379 7.452c1.375 3.114.264 6.63-2.475 7.837-2.74 1.208-6.092-.344-7.466-3.458-1.375-3.114-.265-6.632 2.475-7.838a4.856 4.856 0 0 1 1.964-.41 5.42 5.42 0 0 1 2.22.49c1.44.647 2.605 1.848 3.282 3.379zM11.91 23.557c.476-1.449 1.458-2.566 2.762-3.139a4.848 4.848 0 0 1 1.871-.401h.039c.13.001.246.018.37.026a5.006 5.006 0 0 1 .998.156c.303.079.605.166.903.3a6.31 6.31 0 0 1 1.926 1.355c.003.003.004.008.007.01a6.8 6.8 0 0 1 1.35 2.012c.675 1.528.776 3.192.288 4.686-.006.022-.018.042-.024.064a5.61 5.61 0 0 1-.507 1.082 5.25 5.25 0 0 1-.477.675c-.03.035-.055.076-.085.11a4.865 4.865 0 0 1-1.67 1.22 4.79 4.79 0 0 1-1.002.311c-.062.013-.126.016-.189.026-.258.04-.52.06-.782.059-.09 0-.183 0-.275-.006a5.356 5.356 0 0 1-.929-.128c-.055-.013-.11-.038-.166-.053-1.278-.349-2.463-1.17-3.334-2.347-.085-.113-.172-.224-.249-.344a7.183 7.183 0 0 1-.497-.899l-.058-.118c-.659-1.518-.758-3.171-.27-4.657zm26.56 35.451c-1.325.12-2.668.136-3.976.053-.794-.043-1.442.557-1.491 1.35-.048.798.541 1.482 1.315 1.533a28.42 28.42 0 0 0 4.4-.061c.775-.07 1.345-.771 1.276-1.565-.068-.794-.758-1.393-1.523-1.31zm17.961-34.694c.252.439.718.686 1.2.686.225 0 .454-.054.666-.17a1.32 1.32 0 0 0 .53-1.82 27.492 27.492 0 0 0-2.374-3.494 1.394 1.394 0 0 0-1.924-.234 1.315 1.315 0 0 0-.24 1.877 24.86 24.86 0 0 1 2.142 3.155zm1.659 3.349a20.547 20.547 0 0 1 1.1 3.35c.135.584.727.987 1.389.987.092 0 .189-.009.284-.026.768-.134 1.264-.786 1.108-1.452a22.837 22.837 0 0 0-1.22-3.717c-.273-.638-1.092-.966-1.824-.727-.735.237-1.111.948-.838 1.585zM45.279 57.108a21.48 21.48 0 0 1-3.335 1.208c-.665.18-1.072.918-.907 1.648.139.62.647 1.036 1.204 1.036.098 0 .199-.013.298-.04a23.546 23.546 0 0 0 3.7-1.34c.632-.29.93-1.087.664-1.782-.263-.693-.992-1.025-1.624-.73zm14.719-16.066c-.719-.177-1.452.223-1.64.888a21.788 21.788 0 0 1-1.246 3.327c-.296.63.015 1.366.696 1.64.175.07.358.103.535.103.519 0 1.013-.28 1.233-.749a24.039 24.039 0 0 0 1.379-3.69c.19-.663-.24-1.345-.957-1.519zm-24.59-29.316h.028l.186-.001h.027c1.25 0 2.507.087 3.741.26.07.011.137.015.205.015.688 0 1.289-.488 1.39-1.166.113-.745-.42-1.436-1.19-1.544A29.73 29.73 0 0 0 35.65 9h-.03l-.24.001c-.78.016-1.396.638-1.38 1.39.014.743.642 1.335 1.408 1.335zm16.635 5.922c.224.236.51.352.797.352a1.1 1.1 0 0 0 .843-.404c.44-.517.42-1.333-.045-1.823a24.51 24.51 0 0 0-2.82-2.544c-.528-.404-1.25-.26-1.612.328-.364.586-.232 1.39.294 1.794a22.212 22.212 0 0 1 2.543 2.297zm-9.154-5.118c1.127.356 2.24.807 3.306 1.34.177.087.363.13.548.13a1.25 1.25 0 0 0 1.13-.728c.303-.642.043-1.418-.58-1.73a24.927 24.927 0 0 0-3.668-1.485c-.662-.209-1.365.176-1.569.858-.205.681.168 1.404.833 1.615zm19.079 21.81A1.418 1.418 0 0 0 60.477 33a1.412 1.412 0 0 0-1.357 1.47 25.624 25.624 0 0 1-.112 3.978A1.414 1.414 0 0 0 60.427 40a1.42 1.42 0 0 0 1.416-1.26 28.723 28.723 0 0 0 .125-4.4zm-4.585 13.835c-.617-.334-1.434-.175-1.825.355a21.706 21.706 0 0 1-2.233 2.583c-.48.474-.422 1.194.13 1.607.25.188.56.28.868.28.368 0 .737-.132.997-.392a23.96 23.96 0 0 0 2.475-2.86c.391-.532.206-1.236-.412-1.573zm-42 1.336c-.402-.53-1.211-.67-1.806-.315-.597.354-.757 1.07-.356 1.598.754.996 1.602 1.95 2.52 2.834.257.248.608.372.958.372.315 0 .63-.1.88-.304.528-.43.565-1.159.078-1.627a21.903 21.903 0 0 1-2.274-2.558zm7.981 6.454a21.35 21.35 0 0 1-3.089-1.415c-.591-.33-1.246-.053-1.467.611-.223.666.075 1.472.662 1.798 1.11.62 2.263 1.148 3.42 1.569.202.074.403.08.587.03.375-.1.675-.434.763-.907.132-.708-.26-1.463-.876-1.686zm7.664 2.271a21.022 21.022 0 0 1-3.345-1.14c-.64-.28-1.353.079-1.6.798-.245.72.07 1.532.706 1.81 1.2.526 2.447.951 3.71 1.264.09.022.178.032.266.032.568 0 1.08-.445 1.206-1.1.146-.753-.277-1.5-.943-1.664zM13.876 45.217a22.456 22.456 0 0 1-1.307-3.313c-.202-.665-.931-1.048-1.624-.853-.695.193-1.094.888-.893 1.551.383 1.256.87 2.492 1.448 3.677.223.454.695.721 1.189.721.186 0 .374-.038.554-.118.657-.293.94-1.04.633-1.665zm37.26 8.098a21.41 21.41 0 0 1-2.595 2.212c-.533.386-.701 1.206-.374 1.835.213.411.587.638.967.638.201 0 .405-.064.59-.197a23.774 23.774 0 0 0 2.876-2.45c.476-.476.536-1.317.132-1.88s-1.116-.633-1.596-.158zM20.321 16c.266 0 .535-.086.767-.265a24.564 24.564 0 0 1 3.191-2.07c.649-.352.907-1.2.578-1.895-.33-.692-1.123-.97-1.775-.617a27.062 27.062 0 0 0-3.53 2.292c-.593.453-.73 1.333-.304 1.966.259.383.662.589 1.073.589z"></path>
      <path d="M10.793 39.988a1.4 1.4 0 0 0 1.195-1.576 27.103 27.103 0 0 1-.215-3.395l.007-.58A1.4 1.4 0 0 0 10.423 33c-.719.007-1.4.603-1.416 1.377l-.007.64c0 1.26.08 2.523.24 3.757a1.393 1.393 0 0 0 1.553 1.214zM28.225 13c.126 0 .253-.024.38-.074a19.329 19.329 0 0 1 3.366-.985c.668-.132 1.12-.893 1.013-1.698-.11-.806-.73-1.355-1.405-1.224-1.263.249-2.52.616-3.734 1.095-.642.254-.995 1.088-.784 1.866.17.625.65 1.02 1.164 1.02zm1.313 1.63c-3.985 1.768-5.663 6.77-3.743 11.15 1.468 3.35 4.623 5.38 7.758 5.38.63 0 1.257-.09 1.872-.26 1.628 2.574 4.343 4.101 7.09 4.1.994 0 1.994-.2 2.946-.621 3.986-1.769 5.665-6.771 3.744-11.15-.922-2.099-2.526-3.752-4.519-4.652-1.67-.755-3.45-.903-5.115-.456-2.226-3.553-6.43-5.087-10.033-3.49zm-1.402 10.112c-1.352-3.082-.26-6.564 2.433-7.757a4.773 4.773 0 0 1 1.946-.412c1.78 0 3.553.971 4.716 2.64l-.002.002a7.419 7.419 0 0 0-.966.824 7.864 7.864 0 0 0-1.883 3.108c-.55 1.682-.562 3.505-.068 5.248.01.037.013.073.024.11-2.435.394-5.034-1.105-6.2-3.763zm15.5-3.819c1.415.64 2.562 1.828 3.226 3.345 1.353 3.081.26 6.562-2.433 7.757-2.693 1.195-5.987-.341-7.338-3.423a6.566 6.566 0 0 1-.362-4.288c.026-.098.036-.2.067-.296.087-.275.206-.533.33-.787.035-.07.058-.148.095-.215.142-.26.313-.5.495-.731.037-.048.065-.104.105-.149.193-.229.416-.43.648-.62.042-.033.076-.077.12-.109a4.68 4.68 0 0 1 .915-.547l.049-.021a4.731 4.731 0 0 1 1.904-.4 5.224 5.224 0 0 1 2.18.484z"></path>
    </g>
  </symbol>
  <symbol viewBox="0 0 117 117" xmlns="http://www.w3.org/2000/svg" id="a-icon-plate(2)">
    <title>5FF85002-BF95-4CD7-9B89-8ABB3EA79561</title>
    <g>
      <path d="M58.5 0C26.244 0 0 26.244 0 58.5S26.244 117 58.5 117 117 90.756 117 58.5 90.756 0 58.5 0zm0 112.746c-29.911 0-54.246-24.335-54.246-54.246S28.59 4.254 58.5 4.254 112.746 28.59 112.746 58.5c0 29.912-24.335 54.246-54.246 54.246z"></path>
      <path d="M66.502 58.475l-14.72 11.814a2.065 2.065 0 0 0-.298 2.947A2.16 2.16 0 0 0 53.14 74c.478 0 .958-.155 1.357-.474l14.72-11.815a2.065 2.065 0 0 0 .299-2.947 2.177 2.177 0 0 0-3.014-.29zm2.716 11.236a2.067 2.067 0 0 0 .298-2.948 2.182 2.182 0 0 0-3.014-.29l-14.72 11.816a2.065 2.065 0 0 0-.297 2.947A2.163 2.163 0 0 0 53.14 82c.477 0 .957-.155 1.357-.475l14.72-11.814zm7.264-4.215L63.786 76.11a2.227 2.227 0 0 0-.299 3.09c.427.526 1.045.8 1.667.8.48 0 .962-.163 1.364-.498l12.696-10.613c.918-.77 1.05-2.15.299-3.089a2.131 2.131 0 0 0-3.031-.304zm-1.98 10.979l-14.72 11.813a2.066 2.066 0 0 0-.297 2.948A2.162 2.162 0 0 0 61.14 92c.478 0 .956-.155 1.357-.475l14.72-11.813a2.066 2.066 0 0 0 .297-2.948 2.176 2.176 0 0 0-3.013-.289zM15.698 51.06a2.126 2.126 0 0 0 2.076 2.512c.512 0 .981-.21 1.356-.532a14.378 14.378 0 0 0 5.066 3.566c.061.032.103.083.166.11.13.052.267.069.398.116.285.105.57.2.858.283-3.186 3.902-4.05 9.732-1.738 15.02 2.408 5.513 7.569 8.867 12.79 8.865 1.64 0 3.286-.33 4.854-1.027 6.564-2.925 9.33-11.195 6.166-18.434-1.517-3.47-4.16-6.204-7.443-7.693a13.5 13.5 0 0 0-1.834-.661c.24-.294.469-.598.684-.915.064-.094.12-.19.183-.287.236-.372.455-.76.658-1.16.067-.135.139-.267.201-.405.224-.488.43-.985.599-1.508l.003-.01c.03-.096.05-.197.08-.29.136-.451.248-.908.339-1.37.015-.078.044-.153.056-.231.007-.03-.006-.058-.002-.088.405-2.317.247-4.73-.467-7.045-.005-.02 0-.037-.006-.054-.014-.04-.032-.078-.046-.119a16.115 16.115 0 0 0-.568-1.53 15.923 15.923 0 0 0-1.327-2.43c-.39-.587-.848-1.11-1.307-1.629-.135-.153-.24-.33-.384-.476-.001 0-.001-.003-.003-.003a14.416 14.416 0 0 0-4.423-3.15c-.438-.2-.883-.371-1.33-.52a2.138 2.138 0 0 0-.43-2.329 2.092 2.092 0 0 0-2.979-.025c-.562.557-1.091 1.15-1.624 1.742a11.93 11.93 0 0 0-3.837.988c-3.218 1.434-5.625 4.169-6.777 7.7-1.101 3.39-.908 7.12.534 10.536-.194.82-.39 1.643-.542 2.483zm28.135 12.193c2.228 5.095.428 10.85-4.007 12.825-4.436 1.977-9.863-.563-12.088-5.658-2.225-5.096-.428-10.853 4.007-12.827a7.79 7.79 0 0 1 3.18-.672c1.195 0 2.415.269 3.595.804 2.33 1.058 4.218 3.023 5.313 5.528zM19.712 39.365c.77-2.37 2.36-4.198 4.47-5.136a7.778 7.778 0 0 1 3.03-.656h.064c.211.002.398.03.598.043a8.023 8.023 0 0 1 1.616.255c.491.13.98.272 1.463.49a10.21 10.21 0 0 1 3.118 2.22c.004.004.006.012.01.016a11.106 11.106 0 0 1 2.186 3.29c1.093 2.5 1.258 5.223.467 7.669-.01.036-.029.068-.04.104a9.23 9.23 0 0 1-.819 1.771 8.471 8.471 0 0 1-.774 1.104c-.048.058-.088.124-.137.18a7.882 7.882 0 0 1-2.703 1.999 7.695 7.695 0 0 1-1.622.507c-.102.022-.204.026-.306.043a7.902 7.902 0 0 1-1.266.096c-.148 0-.297 0-.447-.01a8.585 8.585 0 0 1-1.503-.209c-.09-.021-.178-.062-.27-.087-2.068-.57-3.986-1.914-5.397-3.841-.137-.185-.279-.366-.402-.561-.297-.465-.57-.954-.806-1.472l-.093-.194c-1.067-2.484-1.227-5.189-.437-7.62zM62.597 98.01c-2.083.16-4.194.183-6.25.071-1.247-.057-2.266.743-2.343 1.801-.075 1.063.851 1.976 2.067 2.043.949.048 1.902.075 2.864.075 1.345 0 2.71-.052 4.051-.157 1.217-.093 2.114-1.027 2.005-2.086-.107-1.058-1.192-1.857-2.394-1.747zM92.89 39.857A2.188 2.188 0 0 0 94.808 41c.362 0 .729-.09 1.067-.283a2.248 2.248 0 0 0 .847-3.032 45.968 45.968 0 0 0-3.797-5.825 2.17 2.17 0 0 0-3.078-.39 2.253 2.253 0 0 0-.384 3.128 41.567 41.567 0 0 1 3.427 5.259zm2.244 4.914a36.99 36.99 0 0 1 1.65 5.584c.204.974 1.092 1.645 2.084 1.645.139 0 .284-.015.427-.043 1.151-.224 1.896-1.31 1.662-2.42a41.11 41.11 0 0 0-1.831-6.195c-.409-1.064-1.637-1.61-2.736-1.211-1.102.393-1.667 1.579-1.256 2.64zM73.131 95.162c-1.79.74-3.661 1.35-5.557 1.813-1.109.269-1.788 1.376-1.513 2.47A2.065 2.065 0 0 0 68.07 101c.163 0 .33-.019.497-.06a42.16 42.16 0 0 0 6.165-2.009 2.032 2.032 0 0 0 1.107-2.674 2.072 2.072 0 0 0-2.707-1.095zM99.497 67.07c-1.078-.295-2.178.371-2.46 1.48a38.934 38.934 0 0 1-1.869 5.545c-.444 1.051.022 2.276 1.045 2.733.261.118.536.172.801.172.778 0 1.52-.467 1.85-1.248a42.96 42.96 0 0 0 2.068-6.15c.286-1.106-.36-2.242-1.435-2.532zM58.212 19.544h.045l.292-.002h.042c1.963 0 3.94.145 5.88.433.108.018.214.025.32.025 1.082 0 2.027-.813 2.185-1.943.178-1.243-.66-2.394-1.87-2.574A44.097 44.097 0 0 0 58.591 15h-.046l-.379.002c-1.223.026-2.192 1.063-2.167 2.316.023 1.238 1.01 2.226 2.212 2.226zm27.266 9.892c.402.378.918.564 1.435.564.552 0 1.105-.215 1.516-.646a2.049 2.049 0 0 0-.08-2.918 42.793 42.793 0 0 0-5.078-4.07 2.096 2.096 0 0 0-2.901.526 2.05 2.05 0 0 0 .53 2.87 38.77 38.77 0 0 1 4.578 3.674zm-14.997-8.009a36.992 36.992 0 0 1 5.51 2.344c.296.154.606.229.914.229.776 0 1.524-.469 1.885-1.274.504-1.124.07-2.481-.97-3.026a40.433 40.433 0 0 0-6.11-2.6c-1.105-.366-2.277.307-2.616 1.5-.342 1.194.28 2.458 1.387 2.827zm31.476 34.678c-.048-1.182-.89-2.105-1.897-2.105-.03 0-.059 0-.09.002-1.05.055-1.86 1.092-1.81 2.31.025.659.04 1.324.04 1.993a46.9 46.9 0 0 1-.19 4.257c-.108 1.214.652 2.299 1.695 2.428.067.006.133.01.197.01.962 0 1.786-.845 1.89-1.979.138-1.55.208-3.137.208-4.716 0-.738-.015-1.471-.043-2.2zm-6.944 23.21c-.988-.602-2.294-.316-2.92.64a38.17 38.17 0 0 1-3.573 4.648 2.004 2.004 0 0 0 .208 2.893c.4.338.895.504 1.388.504.589 0 1.18-.238 1.596-.706a42.128 42.128 0 0 0 3.96-5.149c.626-.956.33-2.223-.66-2.83zM25.812 80.92a2.086 2.086 0 0 0-2.889-.567 2.066 2.066 0 0 0-.57 2.875 42.78 42.78 0 0 0 4.033 5.103c.41.446.972.669 1.532.669.504 0 1.01-.18 1.408-.547a2.066 2.066 0 0 0 .125-2.928 38.412 38.412 0 0 1-3.639-4.605zM38.99 92.945a37.818 37.818 0 0 1-4.711-3.466c-.874-.756-2.141-.597-2.836.337-.697.937-.556 2.305.314 3.053a41.895 41.895 0 0 0 5.215 3.84c.316.198.664.291 1.006.291.699 0 1.377-.391 1.75-1.086.56-1.04.228-2.37-.739-2.97zm11.39 3.909a37.77 37.77 0 0 1-5.576-1.711 2.048 2.048 0 0 0-2.665 1.198c-.41 1.079.117 2.297 1.176 2.716 2 .789 4.079 1.426 6.183 1.895.149.033.297.048.444.048.947 0 1.8-.667 2.01-1.65.243-1.129-.461-2.25-1.572-2.496zM22.814 75.028a39.988 39.988 0 0 1-1.961-5.522c-.303-1.107-1.397-1.747-2.436-1.421-1.042.321-1.641 1.48-1.339 2.586a44.706 44.706 0 0 0 2.172 6.127c.334.757 1.042 1.202 1.784 1.202.278 0 .561-.063.83-.196.986-.489 1.41-1.733.95-2.776zm60.831 13.475a37.766 37.766 0 0 1-4.672 3.54c-.96.618-1.26 1.93-.672 2.937a2.019 2.019 0 0 0 1.74 1.02c.363 0 .73-.103 1.062-.314a41.908 41.908 0 0 0 5.176-3.92c.858-.762.966-2.109.239-3.01a1.978 1.978 0 0 0-2.873-.253zM34.202 27c.442 0 .891-.138 1.278-.424a41.167 41.167 0 0 1 5.318-3.312c1.082-.564 1.512-1.921.964-3.033-.55-1.106-1.871-1.55-2.958-.986a45.352 45.352 0 0 0-5.885 3.667c-.987.724-1.216 2.134-.506 3.146a2.187 2.187 0 0 0 1.79.942z"></path>
      <path d="M17.988 65.98c1.267-.156 2.159-1.264 1.992-2.475a40.191 40.191 0 0 1-.358-5.335l.012-.913c.025-1.223-.99-2.231-2.263-2.257-1.198.011-2.332.948-2.36 2.164L15 58.17c0 1.978.134 3.964.4 5.904.15 1.114 1.144 1.926 2.287 1.926.1 0 .2-.006.301-.02zM46.041 21c.211 0 .423-.035.635-.11a34.98 34.98 0 0 1 5.61-1.48c1.112-.197 1.867-1.338 1.688-2.545-.183-1.21-1.218-2.033-2.343-1.836-2.105.373-4.2.923-6.223 1.642-1.069.38-1.658 1.632-1.306 2.8.282.937 1.082 1.529 1.94 1.529zm1.582 3.051c-6.693 2.946-9.513 11.283-6.288 18.582 2.468 5.583 7.767 8.968 13.035 8.968a11.84 11.84 0 0 0 3.143-.436c2.736 4.292 7.296 6.837 11.91 6.835 1.673 0 3.353-.333 4.952-1.035 6.696-2.948 9.516-11.285 6.289-18.582-1.548-3.5-4.243-6.254-7.592-7.754-2.806-1.259-5.795-1.505-8.593-.761-3.74-5.921-10.803-8.479-16.856-5.817zM45.27 40.903c-2.272-5.136-.437-10.94 4.087-12.928a8.073 8.073 0 0 1 3.269-.686c2.99 0 5.97 1.618 7.923 4.398l-.004.005c-.57.4-1.096.853-1.59 1.341l-.032.033a13.089 13.089 0 0 0-3.164 5.18c-.924 2.803-.944 5.84-.114 8.745.017.062.021.123.041.185-4.092.656-8.458-1.843-10.416-6.273zm26.04-6.364c2.377 1.065 4.304 3.046 5.42 5.574 2.273 5.136.438 10.937-4.089 12.929-4.523 1.991-10.057-.569-12.328-5.705-1.057-2.39-1.19-4.916-.607-7.147.044-.163.06-.333.112-.493.146-.459.347-.888.555-1.312.058-.116.096-.247.16-.358.238-.435.525-.833.83-1.22.063-.08.11-.171.177-.247a8.042 8.042 0 0 1 1.09-1.032c.07-.056.126-.13.2-.183.47-.356.981-.662 1.538-.911l.082-.036a8.003 8.003 0 0 1 3.2-.665c1.217-.005 2.458.265 3.66.806z"></path>
    </g>
  </symbol>
  <symbol viewBox="0 0 50 50" xmlns="http://www.w3.org/2000/svg" id="a-icon-plate">
    <title>8949567A-7175-4E47-AEF8-0926C6E4BF29</title>
    <g fill="#FFF">
      <path d="M25 0C11.216 0 0 11.216 0 25s11.216 25 25 25 25-11.216 25-25S38.785 0 25 0zm0 48.182c-12.783 0-23.182-10.4-23.182-23.182 0-12.783 10.4-23.182 23.182-23.182 12.783 0 23.182 10.4 23.182 23.182 0 12.783-10.4 23.182-23.182 23.182z"></path>
      <path d="M28.726 24.857l-6.547 5.2a.903.903 0 0 0-.133 1.297.965.965 0 0 0 .737.336.969.969 0 0 0 .604-.209l6.547-5.2a.902.902 0 0 0 .132-1.297.976.976 0 0 0-1.34-.127zm1.208 4.946a.903.903 0 0 0 .132-1.298.978.978 0 0 0-1.34-.128l-6.547 5.2a.903.903 0 0 0-.132 1.298.966.966 0 0 0 .736.336.967.967 0 0 0 .604-.209l6.547-5.2z"></path>
      <path d="M32.345 27.675l-5.259 4.484a.954.954 0 0 0-.124 1.305.869.869 0 0 0 1.256.128l5.26-4.484a.954.954 0 0 0 .123-1.305.871.871 0 0 0-1.256-.128zm-.098 4.928l-6.547 5.2a.903.903 0 0 0-.132 1.297.966.966 0 0 0 .736.337.968.968 0 0 0 .604-.21l6.547-5.199a.903.903 0 0 0 .132-1.297.975.975 0 0 0-1.34-.128zM6.641 21.622a.916.916 0 0 0 .903 1.081.91.91 0 0 0 .59-.229 6.261 6.261 0 0 0 2.204 1.535c.027.014.045.036.072.047.057.022.116.03.173.05.124.045.248.086.373.122-1.385 1.68-1.761 4.188-.756 6.464 1.048 2.373 3.293 3.816 5.564 3.815.713 0 1.43-.142 2.11-.442 2.856-1.259 4.06-4.818 2.683-7.933-.66-1.494-1.81-2.67-3.237-3.31a5.913 5.913 0 0 0-.798-.285 5.56 5.56 0 0 0 .297-.394c.028-.04.053-.082.08-.124a5.93 5.93 0 0 0 .286-.499c.03-.058.06-.115.088-.174.097-.21.187-.424.26-.65l.001-.004c.014-.04.022-.084.035-.124.06-.194.108-.391.147-.59.007-.033.02-.066.025-.1.003-.012-.003-.024 0-.037a6.427 6.427 0 0 0-.204-3.032c-.002-.009 0-.016-.003-.023l-.02-.051a6.889 6.889 0 0 0-.247-.659 6.83 6.83 0 0 0-.577-1.046 6.482 6.482 0 0 0-.568-.7c-.06-.067-.105-.143-.167-.206h-.002a6.27 6.27 0 0 0-1.923-1.357 5.92 5.92 0 0 0-.579-.223.913.913 0 0 0-.187-1.002.917.917 0 0 0-1.296-.012c-.244.24-.474.495-.706.75a5.27 5.27 0 0 0-1.67.426c-1.399.616-2.446 1.793-2.947 3.314-.479 1.458-.395 3.063.232 4.534-.084.353-.17.707-.236 1.068zM18.88 26.87c.97 2.193.187 4.67-1.742 5.52-1.93.85-4.29-.242-5.258-2.435s-.187-4.67 1.743-5.52a3.42 3.42 0 0 1 1.383-.29c.52 0 1.05.116 1.563.347 1.014.455 1.835 1.3 2.311 2.378zM8.387 16.59c.336-1.02 1.027-1.806 1.945-2.21.42-.184.865-.275 1.318-.283h.027c.092.001.174.013.26.019a3.526 3.526 0 0 1 .704.11c.213.055.426.117.636.21a4.44 4.44 0 0 1 1.356.955l.005.008a4.79 4.79 0 0 1 .95 1.416c.476 1.076.547 2.248.204 3.3-.005.016-.013.03-.018.045a3.95 3.95 0 0 1-.693 1.237c-.02.025-.038.054-.06.077a3.353 3.353 0 0 1-1.881 1.08c-.044.008-.088.01-.133.018a3.444 3.444 0 0 1-.55.04c-.065 0-.13 0-.195-.003a3.772 3.772 0 0 1-.653-.09c-.04-.01-.078-.027-.118-.038-.9-.245-1.734-.824-2.347-1.653-.06-.08-.122-.157-.175-.241-.13-.2-.248-.41-.35-.634l-.041-.083c-.464-1.07-.534-2.233-.19-3.28zm18.705 24.965c-.933.084-1.88.096-2.8.037a.996.996 0 0 0-1.05.951c-.034.562.38 1.044.926 1.08a20.015 20.015 0 0 0 3.099-.043c.545-.05.947-.543.898-1.103-.048-.558-.534-.98-1.073-.922zM39.74 17.123a.97.97 0 0 0 .845.483.98.98 0 0 0 .469-.12.93.93 0 0 0 .373-1.281 19.36 19.36 0 0 0-1.671-2.461.982.982 0 0 0-1.355-.165.926.926 0 0 0-.17 1.322 17.507 17.507 0 0 1 1.51 2.222zm1.168 2.357c.326.766.587 1.56.775 2.36.095.412.512.695.978.695.065 0 .133-.006.2-.018.54-.095.89-.554.78-1.023a16.082 16.082 0 0 0-.859-2.617c-.192-.45-.768-.68-1.284-.512-.518.166-.783.667-.59 1.116zm-9.022 20.737c-.756.347-1.547.634-2.348.85-.468.127-.755.647-.639 1.16.098.438.456.73.848.73.07 0 .14-.008.21-.027.89-.24 1.766-.557 2.605-.944.445-.204.655-.766.468-1.255-.185-.488-.699-.722-1.144-.514zm10.366-11.314c-.506-.125-1.023.157-1.155.625a15.3 15.3 0 0 1-.877 2.343c-.209.444.01.962.49 1.155.123.05.252.073.377.073a.954.954 0 0 0 .868-.528c.394-.837.721-1.711.97-2.598.135-.468-.168-.948-.673-1.07zM24.935 8.258h.02l.13-.001h.02c.88 0 1.766.062 2.635.183a.98.98 0 0 0 1.123-.81c.08-.525-.296-1.012-.839-1.088a20.937 20.937 0 0 0-2.919-.204h-.19c-.548.012-.982.45-.971.98.01.523.452.94.99.94zm11.715 4.17a.77.77 0 0 0 .562.248.775.775 0 0 0 .593-.284.982.982 0 0 0-.032-1.284 17.261 17.261 0 0 0-1.986-1.792c-.371-.285-.88-.183-1.135.231-.256.413-.164.979.207 1.264.63.486 1.234 1.03 1.791 1.617zm-6.447-3.604c.794.25 1.578.569 2.329.943a.864.864 0 0 0 .385.092.882.882 0 0 0 .797-.513.924.924 0 0 0-.41-1.217 17.47 17.47 0 0 0-2.582-1.047.882.882 0 0 0-1.105.604.915.915 0 0 0 .586 1.138zM43.64 24.183a.999.999 0 0 0-1.003-.944l-.048.001a.995.995 0 0 0-.955 1.036 17.917 17.917 0 0 1-.08 2.8.996.996 0 0 0 1 1.093 1 1 0 0 0 .998-.887 20.227 20.227 0 0 0 .087-3.1zm-3.23 9.743c-.434-.235-1.009-.124-1.285.25a15.286 15.286 0 0 1-1.572 1.819c-.338.334-.297.841.091 1.132.177.132.394.197.611.197.26 0 .52-.093.703-.276a16.869 16.869 0 0 0 1.743-2.015c.275-.374.145-.87-.29-1.107zm-29.577.941c-.283-.373-.853-.472-1.272-.222-.42.25-.533.753-.25 1.125a17.214 17.214 0 0 0 1.774 1.997.973.973 0 0 0 .675.261.98.98 0 0 0 .62-.214c.372-.303.397-.816.055-1.145a15.456 15.456 0 0 1-1.602-1.802zm5.62 4.545a15.035 15.035 0 0 1-2.175-.997c-.416-.232-.877-.037-1.033.431-.157.469.053 1.036.466 1.266.782.436 1.594.808 2.409 1.105a.68.68 0 0 0 .413.021c.264-.07.476-.305.538-.639.092-.498-.184-1.03-.618-1.187zm5.397 1.599c-.8-.2-1.594-.47-2.355-.803-.45-.197-.953.056-1.126.562-.174.507.05 1.079.497 1.275.845.37 1.723.67 2.612.89a.768.768 0 0 0 .188.023c.4 0 .76-.314.849-.775.103-.53-.195-1.056-.664-1.172zM9.772 31.843a15.814 15.814 0 0 1-.92-2.333c-.143-.468-.656-.738-1.144-.6-.49.135-.771.624-.629 1.092.27.884.613 1.754 1.02 2.589.157.32.489.508.837.508.13 0 .264-.027.39-.083.463-.207.662-.733.446-1.173zm26.239 5.703a15.09 15.09 0 0 1-1.827 1.558c-.376.271-.494.85-.263 1.292.15.29.413.45.68.45a.712.712 0 0 0 .416-.14 16.742 16.742 0 0 0 2.025-1.724c.335-.336.378-.929.093-1.325-.284-.396-.786-.446-1.124-.111zM14.31 11.268a.879.879 0 0 0 .54-.187 17.299 17.299 0 0 1 2.248-1.458c.457-.248.639-.845.407-1.335-.232-.487-.79-.682-1.25-.434a19.058 19.058 0 0 0-2.486 1.614c-.417.319-.514.94-.214 1.385.182.27.466.415.756.415z"></path>
      <path d="M7.6 28.16a.986.986 0 0 0 .842-1.11c-.1-.785-.151-1.59-.151-2.39l.005-.41a.985.985 0 0 0-.956-1.01c-.506.004-.986.424-.997.97l-.005.45c0 .887.057 1.776.169 2.646a.98.98 0 0 0 1.094.854zM19.877 9.155a.733.733 0 0 0 .268-.052c.77-.303 1.567-.538 2.37-.694.47-.093.789-.629.713-1.195-.077-.568-.514-.955-.99-.862a15.19 15.19 0 0 0-2.629.77c-.452.18-.7.767-.552 1.315.12.44.457.718.82.718zm.924 1.148c-2.806 1.245-3.988 4.768-2.636 7.852 1.035 2.359 3.256 3.789 5.464 3.789.443 0 .885-.064 1.318-.184 1.147 1.813 3.058 2.889 4.993 2.888.7 0 1.405-.14 2.075-.438 2.807-1.245 3.989-4.768 2.636-7.851-.649-1.479-1.778-2.642-3.182-3.276-1.176-.532-2.43-.636-3.602-.322-1.568-2.502-4.529-3.582-7.066-2.458zm-.987 7.12c-.952-2.17-.183-4.621 1.713-5.462.444-.197.908-.29 1.37-.29 1.255 0 2.503.684 3.322 1.859l-.002.002a5.224 5.224 0 0 0-.68.58 5.538 5.538 0 0 0-1.326 2.189c-.387 1.184-.396 2.468-.048 3.695.007.027.01.052.018.078-1.716.278-3.546-.779-4.367-2.65zm10.916-2.688c.996.45 1.804 1.287 2.271 2.355.953 2.17.184 4.621-1.713 5.463-1.896.841-4.216-.24-5.168-2.41a4.624 4.624 0 0 1-.254-3.02c.018-.07.025-.141.047-.209.06-.194.145-.375.232-.554.025-.049.04-.104.067-.152.1-.183.22-.352.349-.515.026-.033.045-.072.073-.104.136-.161.293-.303.457-.437.03-.023.053-.054.084-.077.197-.15.411-.28.645-.385l.034-.015c.426-.187.88-.28 1.341-.28a3.68 3.68 0 0 1 1.535.34z"></path>
    </g>
  </symbol>
  <symbol viewBox="0 0 56 50" xmlns="http://www.w3.org/2000/svg" id="a-icon-pot">
    <title>3D19C1A3-6189-4B63-A3F6-40149403610E</title>
    <g fill="#FFF">
      <path d="M53.053 18.554h-2.925c.05-.562.22-1.109.511-1.595l1.602-2.669c.315-.524.323-1.18.02-1.713-.201-.35-.522-.6-.89-.738a1.698 1.698 0 0 0-.226-.752l-.128-.171c-1.155-1.226-4.034-4.08-5.824-4.08h-6.877V5.86c0-3.232-2.644-5.86-5.895-5.86h-9.824c-3.251 0-5.895 2.628-5.895 5.86v.976h-5.895c-1.79 0-4.668 2.854-5.823 4.08l-.128.17a1.71 1.71 0 0 0-.225.753c-.368.137-.69.388-.89.738a1.697 1.697 0 0 0 .019 1.713l1.602 2.668c.292.487.46 1.034.51 1.597H2.949A2.941 2.941 0 0 0 0 21.485c0 1.615 1.322 2.929 2.948 2.929h2.947v19.53c0 .25.14 1.331.209 1.552C6.793 48.084 9.154 50 11.959 50H44.04c3.344 0 6.064-2.717 6.064-6.055V24.414h2.947c1.625 0 2.948-1.314 2.948-2.93a2.942 2.942 0 0 0-2.947-2.93zm-7.86-9.765c.549.007 2.272 1.324 3.873 2.93H34.308a6.83 6.83 0 0 0 .079-.977 6.78 6.78 0 0 0-.29-1.953h11.096zm-13.275 4.067c-.07.142-.144.28-.226.413a4.405 4.405 0 0 1-.208.318 4.842 4.842 0 0 1-.348.419c-.067.074-.13.155-.201.225a4.82 4.82 0 0 1-.63.516c-.08.056-.169.1-.252.15-.163.098-.328.19-.5.27a4.613 4.613 0 0 1-.313.126c-.178.068-.36.124-.547.17-.097.024-.194.051-.294.07a4.716 4.716 0 0 1-.89.092c-.304 0-.6-.036-.888-.09-.1-.018-.196-.045-.294-.07a5.04 5.04 0 0 1-.547-.169c-.105-.04-.21-.08-.312-.126a5.09 5.09 0 0 1-.5-.27c-.084-.05-.173-.094-.253-.15a4.971 4.971 0 0 1-.63-.517c-.071-.07-.133-.15-.201-.224a5.165 5.165 0 0 1-.348-.42c-.074-.1-.14-.21-.207-.317a4.894 4.894 0 0 1-.226-.413 4.82 4.82 0 0 1-.506-2.117 4.825 4.825 0 0 1 .93-2.836c.133-.184.276-.358.433-.522.048-.05.096-.1.146-.149a4.903 4.903 0 0 1 .798-.616c.18-.113.368-.215.563-.304.062-.029.122-.063.186-.089a4.84 4.84 0 0 1 .993-.281c.282-.05.569-.087.865-.087.297 0 .583.037.865.087a4.905 4.905 0 0 1 .993.281c.064.026.124.06.186.089a4.938 4.938 0 0 1 .81.467c.194.14.38.288.551.453.05.048.098.1.146.15a4.89 4.89 0 0 1 .594.758 4.85 4.85 0 0 1 .765 2.6 4.819 4.819 0 0 1-.503 2.113zM18.667 5.86c0-2.155 1.762-3.907 3.93-3.907h9.824c2.168 0 3.93 1.752 3.93 3.907v.976h-3.205c-.01-.015-.024-.03-.036-.045a6.963 6.963 0 0 0-1.01-1.12c-.032-.03-.063-.06-.095-.088a6.877 6.877 0 0 0-2.02-1.209c-.037-.014-.076-.027-.113-.042a6.615 6.615 0 0 0-.79-.236 7.146 7.146 0 0 0-.606-.113c-.061-.008-.121-.02-.182-.027a6.972 6.972 0 0 0-.787-.048c-.266 0-.529.019-.787.048-.06.007-.121.02-.182.027-.205.03-.407.066-.607.113a7.007 7.007 0 0 0-.79.237l-.113.041a6.881 6.881 0 0 0-2.019 1.21c-.032.028-.063.058-.096.086a7.21 7.21 0 0 0-.461.452c-.038.041-.076.081-.113.123-.154.175-.3.357-.435.546-.01.016-.024.03-.036.045h-3.201V5.86zm-7.86 2.93h10.115a6.754 6.754 0 0 0-.29 1.952c0 .332.032.656.079.977H6.935c1.583-1.584 3.333-2.923 3.872-2.93zm-7.86 13.67a.98.98 0 0 1-.982-.976.98.98 0 0 1 .983-.977h2.947v1.954H2.948zm45.194 21.485a4.106 4.106 0 0 1-4.1 4.102H11.96c-1.55 0-2.886-.876-3.582-2.15h8.325a.98.98 0 0 0 .982-.976.98.98 0 0 0-.982-.976H7.86V41.99h5.894a.979.979 0 0 0 .983-.976.98.98 0 0 0-.983-.977H7.86v-1.953h3.93a.98.98 0 0 0 .982-.977.98.98 0 0 0-.982-.976H7.86V18.554h-.023a5.68 5.68 0 0 0-.787-2.596l-1.373-2.286H21.3c.008.017.018.03.027.046.269.55.607 1.057 1.008 1.513a6.698 6.698 0 0 0 .694.686l.04.036c.23.194.474.372.727.533.031.02.062.037.094.057.23.142.472.272.72.388.032.014.063.031.094.045.275.122.557.228.848.314.028.008.056.014.082.02a6.929 6.929 0 0 0 .984.202c.292.038.588.064.89.064a6.93 6.93 0 0 0 1.102-.096c.263-.042.52-.098.773-.17.028-.007.055-.012.082-.02a6.77 6.77 0 0 0 .848-.314l.094-.045c.248-.116.488-.246.72-.388.03-.02.063-.037.094-.057.254-.163.497-.34.726-.533l.041-.036c.211-.181.41-.376.598-.581l.097-.105c.4-.456.738-.964 1.008-1.513l.026-.046h16.607l-1.372 2.287a5.667 5.667 0 0 0-.788 2.596h-.023v25.39h-.001zm4.912-21.484h-2.947v-1.954h2.947a.98.98 0 0 1 .983.977.98.98 0 0 1-.983.977z"></path>
      <path d="M26 10.398L29.399 7 31 8.602 27.601 12z"></path>
    </g>
  </symbol>
  <symbol viewBox="0 0 33 28" xmlns="http://www.w3.org/2000/svg" id="a-icon-ruby">
    <title>F35C7261-FA0F-436E-B4E2-E58BF1DA7ECF</title>
    <g fill="#5A5A5A">
      <path d="M16.5 28a.498.498 0 0 1-.382-.178l-16-19A.5.5 0 0 1 .1 8.2l6-8a.5.5 0 0 1 .4-.2h20a.5.5 0 0 1 .4.2l6 8a.5.5 0 0 1-.018.622l-16 19A.498.498 0 0 1 16.5 28zM1.139 8.482L16.5 26.724 31.861 8.482 26.25 1H6.75L1.139 8.482z"></path>
      <path d="M32.5 9H.5a.5.5 0 1 1 0-1h32a.5.5 0 0 1 0 1z"></path>
      <path d="M16.5 28a.498.498 0 0 1-.476-.65l6-19a.5.5 0 1 1 .952.301l-6 19A.5.5 0 0 1 16.5 28z"></path>
      <path d="M16.5 28a.5.5 0 0 1-.476-.35l-6-18.999a.5.5 0 0 1 .952-.301l6 18.999a.5.5 0 0 1-.475.651z"></path>
      <path d="M10.5 9a.5.5 0 0 1-.448-.276l-4-8a.501.501 0 0 1 .895-.447l4 8A.5.5 0 0 1 10.5 9z"></path>
      <path d="M10.5 9a.5.5 0 0 1-.4-.8l6-8a.5.5 0 0 1 .8.6l-6 8a.501.501 0 0 1-.4.2z"></path>
      <path d="M22.5 9a.498.498 0 0 1-.4-.2l-6-8a.5.5 0 1 1 .8-.6l6 8a.5.5 0 0 1-.4.8z"></path>
      <path d="M22.5 9a.5.5 0 0 1-.447-.724l4-8a.5.5 0 0 1 .894.448l-4 7.999A.502.502 0 0 1 22.5 9z"></path>
    </g>
  </symbol>
  <symbol viewBox="0 0 26 28" xmlns="http://www.w3.org/2000/svg" id="a-icon-search">
    <title>8738EE7E-FAFF-4D06-B63F-70DF569DB83B</title>
    <path d="M25.858 27.105l-7.575-8.17a11.275 11.275 0 0 0 3.129-7.834C21.412 4.98 16.61 0 10.706 0S0 4.98 0 11.101c0 6.122 4.802 11.102 10.706 11.102 2.591 0 4.97-.96 6.823-2.554l7.594 8.189a.497.497 0 0 0 .72.015.543.543 0 0 0 .015-.748zm-15.152-5.96c-5.341 0-9.686-4.505-9.686-10.044 0-5.538 4.345-10.044 9.686-10.044s9.686 4.506 9.686 10.044c0 5.539-4.345 10.045-9.686 10.045z"
      fill="#5A5A5A"></path>
  </symbol>
  <symbol viewBox="0 0 60 117" xmlns="http://www.w3.org/2000/svg" id="a-icon-shaker(1)">
    <title>1D3C8DFD-3D19-46B7-9ED0-04F4BD8A44EA</title>
    <g>
      <path d="M59.999 37.604a1.977 1.977 0 0 0-.124-.734c-.002-.005 0-.011-.002-.015L53.648 21.43c-1.29-3.187-4.238-5.303-7.64-5.594V6.372c0-3.515-2.884-6.372-6.43-6.372H20.42c-3.546 0-6.43 2.857-6.43 6.372v9.464c-3.402.29-6.35 2.409-7.638 5.594L.127 36.855c-.003.006 0 .012-.003.015-.092.233-.126.48-.123.734 0 .047-.003.088.002.131.001.038-.004.076.001.114l9.238 69.333C9.768 112.78 14.444 117 20.115 117H39.88c5.673 0 10.35-4.22 10.87-9.743l9.247-69.406c.006-.038-.002-.076.002-.116.003-.043 0-.084 0-.13zM17.992 6.372c0-1.327 1.09-2.406 2.428-2.406h19.158c1.338 0 2.427 1.08 2.427 2.406v9.405H17.992V6.372zm-7.924 16.532a5.047 5.047 0 0 1 4.71-3.16h30.443a5.048 5.048 0 0 1 4.71 3.158l5.349 13.252c-.854.192-1.709.378-2.567.552-.933.19-1.863.388-2.797.552a119.3 119.3 0 0 1-3.917.596c-.9.128-1.797.272-2.7.377-1.408.165-2.823.272-4.237.385-.806.064-1.613.155-2.421.2-1.922.111-3.843.16-5.765.174-.579.005-1.157.005-1.735 0a116.053 116.053 0 0 1-5.764-.172c-.85-.049-1.699-.144-2.55-.211-1.368-.11-2.736-.215-4.1-.373-.938-.11-1.868-.26-2.802-.391-1.273-.18-2.548-.358-3.815-.58-.952-.168-1.899-.37-2.847-.562a102.74 102.74 0 0 1-2.54-.547l5.345-13.25zm36.706 83.907c-.334 3.548-3.3 6.223-6.893 6.223H20.115c-3.593 0-6.557-2.675-6.901-6.297L4.347 40.18c.799.177 1.605.304 2.408.465.922.184 1.844.373 2.771.535 1.4.244 2.806.446 4.213.641.854.117 1.704.25 2.56.35 1.6.183 3.203.314 4.808.435.67.05 1.339.125 2.009.165 4.586.266 9.187.266 13.771 0 .656-.038 1.308-.11 1.963-.16 1.621-.122 3.24-.255 4.855-.44.844-.098 1.685-.231 2.527-.346a116.65 116.65 0 0 0 4.244-.647c.922-.161 1.84-.349 2.757-.532.806-.16 1.614-.287 2.414-.466l-8.873 66.631z"></path>
      <path d="M25.074 106.004c-3.6-.218-4.193-3.84-4.251-4.268l-2.736-19.999c-.15-1.096-1.172-1.868-2.305-1.718-1.125.145-1.915 1.152-1.763 2.246l2.732 19.97c.306 2.533 2.387 7.413 8.069 7.761.043.002.084.004.13.004 1.073 0 1.978-.814 2.046-1.876.07-1.1-.79-2.052-1.922-2.12z"></path>
    </g>
  </symbol>
  <symbol viewBox="0 0 36 71" xmlns="http://www.w3.org/2000/svg" id="a-icon-shaker">
    <title>4A7511BF-35A7-44F9-BC7D-D78C34225D80</title>
    <g fill="#C5C1C1">
      <path d="M36 22.82a1.212 1.212 0 0 0-.075-.446l-.001-.009-3.735-9.361a5.411 5.411 0 0 0-4.585-3.394V3.867A3.866 3.866 0 0 0 23.747 0H12.252a3.866 3.866 0 0 0-3.858 3.867V9.61a5.41 5.41 0 0 0-4.583 3.395l-3.735 9.36-.001.01A1.18 1.18 0 0 0 0 22.82c0 .028-.001.053.002.08 0 .022-.003.045 0 .068l5.543 42.074A6.53 6.53 0 0 0 12.069 71h11.859a6.52 6.52 0 0 0 6.522-5.913l5.548-42.118c.004-.023 0-.046.001-.07.002-.026 0-.051 0-.08zM10.794 3.867c0-.805.654-1.46 1.457-1.46h11.495a1.46 1.46 0 0 1 1.456 1.46v5.707H10.795V3.867zM6.041 13.899a3.028 3.028 0 0 1 2.826-1.918h18.266a3.03 3.03 0 0 1 2.826 1.917l3.209 8.041c-.512.117-1.025.23-1.54.336-.56.115-1.118.235-1.679.334-.78.139-1.564.25-2.35.362-.54.078-1.078.166-1.62.229-.844.1-1.693.165-2.542.233-.484.04-.968.095-1.453.122a68.892 68.892 0 0 1-4.5.106 68.85 68.85 0 0 1-3.458-.105c-.51-.03-1.02-.087-1.53-.128-.82-.067-1.642-.13-2.46-.226-.563-.067-1.12-.158-1.681-.238-.764-.11-1.529-.216-2.29-.352-.57-.101-1.138-.224-1.707-.34a61.042 61.042 0 0 1-1.524-.333l3.207-8.04zm22.023 50.918a4.14 4.14 0 0 1-4.136 3.776H12.07c-2.156 0-3.934-1.623-4.14-3.82l-5.32-40.39c.479.107.962.184 1.444.282.553.112 1.107.226 1.663.325.84.148 1.683.27 2.527.389.513.07 1.023.151 1.537.211.96.112 1.921.192 2.884.265.402.03.803.076 1.205.1a70.74 70.74 0 0 0 8.263 0c.394-.023.785-.067 1.178-.098a72.8 72.8 0 0 0 2.913-.267c.506-.059 1.01-.14 1.516-.21.851-.118 1.701-.24 2.547-.391.553-.098 1.103-.212 1.654-.323.483-.098.968-.175 1.448-.283l-5.324 40.434z"></path>
      <path d="M14.815 64.602c-2.215-.13-2.58-2.303-2.616-2.56l-1.684-12c-.092-.658-.721-1.12-1.419-1.03-.692.087-1.178.69-1.085 1.347L9.693 62.34c.188 1.52 1.47 4.448 4.965 4.657l.08.002c.66 0 1.217-.488 1.26-1.126.043-.66-.487-1.23-1.183-1.272z"></path>
    </g>
  </symbol>
  <symbol viewBox="0 0 88 117" xmlns="http://www.w3.org/2000/svg" id="a-icon-teapot(1)">
    <title>4C4FD823-4D3A-421D-A0FB-B1EC13736828</title>
    <g>
      <path d="M31 46h-8a2 2 0 1 0 0 4h8a2 2 0 1 0 0-4zm-8 13h4c1.106 0 2-.894 2-2 0-1.106-.894-2-2-2h-4c-1.106 0-2 .894-2 2 0 1.106.894 2 2 2zm8 20h-8c-1.105 0-2 .894-2 2 0 1.106.895 2 2 2h8a2 2 0 1 0 0-4zm0-17h-8c-1.105 0-2 .894-2 2 0 1.106.895 2 2 2h8a2 2 0 1 0 0-4zm-8 12h4c1.106 0 2-.894 2-2 0-1.106-.894-2-2-2h-4c-1.106 0-2 .894-2 2 0 1.106.894 2 2 2z"></path>
      <path d="M81.896 30.258h-6.65l.14-.948a8.531 8.531 0 0 0-2.367-6.43c-1.437-1.51-3.321-2.387-5.366-2.613v-4.13c0-3.336-2.739-6.051-6.104-6.051h-4.07V6.052C57.479 2.715 54.74 0 51.375 0H26.96c-3.366 0-6.105 2.715-6.105 6.052v4.035h-4.069c-3.365 0-6.104 2.714-6.104 6.05v4.036H6.139a6.134 6.134 0 0 0-5.412 3.215 6.035 6.035 0 0 0 .304 6.246L8.71 41.049l4.767 45.63c.31 1.535.99 2.91 1.903 4.097h-4.698c-3.366 0-6.105 2.715-6.105 6.051V117h69.18V96.827c0-3.335-2.737-6.05-6.103-6.05h-3.292c1.737-1.93 2.847-4.407 2.999-7.114l.44-2.973h14.095c3.366 0 6.105-2.715 6.105-6.052V36.31c0-3.336-2.738-6.052-6.104-6.052zM24.924 6.052c0-1.114.911-2.017 2.035-2.017h24.416c1.123 0 2.035.903 2.035 2.017v4.035H24.924V6.052zM14.75 16.138c0-1.113.91-2.017 2.034-2.017H61.55c1.122 0 2.034.904 2.034 2.017v4.035H14.751v-4.035zM67.653 94.81c1.123 0 2.035.903 2.035 2.017v16.138H8.646V96.827c0-1.114.911-2.017 2.035-2.017h56.972zm-3.406-17.857l-.573 3.737h.022l-.379 2.563c-.244 4.218-3.77 7.522-8.031 7.522H23.483c-2.915 0-5.447-2.057-5.986-4.7L12.654 39.64 4.418 27.394c-.62-.922-.28-1.779-.104-2.104.177-.325.706-1.084 1.823-1.084h60.54a4.62 4.62 0 0 1 3.38 1.446c.886.931 1.335 2.15 1.281 3.253l-7.09 48.048zm19.684-2.316a2.027 2.027 0 0 1-2.035 2.018H68.41l6.516-42.362h6.97c1.124 0 2.035.903 2.035 2.017v38.327z"></path>
      <path d="M20 96c-3.86 0-7 3.364-7 7.5s3.14 7.5 7 7.5 7-3.364 7-7.5-3.14-7.5-7-7.5zm0 10.715c-1.655 0-3-1.442-3-3.215 0-1.772 1.346-3.214 3-3.214s3 1.442 3 3.214c0 1.773-1.346 3.215-3 3.215zm32-3.215c0 4.136 3.14 7.5 7 7.5s7-3.364 7-7.5-3.14-7.5-7-7.5-7 3.364-7 7.5zm7-3.214c1.655 0 3 1.442 3 3.214 0 1.773-1.346 3.214-3 3.214s-3-1.442-3-3.214 1.346-3.214 3-3.214zM35 96c-1.106 0-2 .958-2 2.143v10.714c0 1.185.894 2.143 2 2.143 1.106 0 2-.958 2-2.143V98.143C37 96.958 36.106 96 35 96zm9 0c-1.106 0-2 .958-2 2.143v10.714c0 1.185.894 2.143 2 2.143 1.106 0 2-.958 2-2.143V98.143C46 96.958 45.106 96 44 96z"></path>
    </g>
  </symbol>
  <symbol viewBox="0 0 54 71" xmlns="http://www.w3.org/2000/svg" id="a-icon-teapot">
    <title>9479C27C-55B5-46F8-A1FA-3587C8EC0046</title>
    <g fill="#C5C1C1">
      <path d="M18.833 28h-4.666c-.645 0-1.167.447-1.167 1 0 .553.522 1 1.167 1h4.666c.645 0 1.167-.447 1.167-1 0-.553-.522-1-1.167-1zm-4.583 7h2.5c.691 0 1.25-.447 1.25-1 0-.553-.559-1-1.25-1h-2.5c-.691 0-1.25.447-1.25 1 0 .553.559 1 1.25 1zm4.583 13h-4.666c-.645 0-1.167.447-1.167 1 0 .553.522 1 1.167 1h4.666c.645 0 1.167-.447 1.167-1 0-.553-.522-1-1.167-1zm0-10h-4.666c-.645 0-1.167.447-1.167 1 0 .553.522 1 1.167 1h4.666c.645 0 1.167-.447 1.167-1 0-.553-.522-1-1.167-1zm-4.583 7h2.5c.691 0 1.25-.447 1.25-1 0-.553-.559-1-1.25-1h-2.5c-.691 0-1.25.447-1.25 1 0 .553.559 1 1.25 1z"></path>
      <path d="M50.255 18.362h-4.082l.086-.575a5.144 5.144 0 0 0-1.452-3.903c-.881-.916-2.038-1.448-3.293-1.585V9.793c0-2.025-1.68-3.673-3.746-3.673h-2.497V3.673c0-2.025-1.68-3.673-3.745-3.673H16.543c-2.065 0-3.746 1.648-3.746 3.673V6.12H10.3c-2.065 0-3.746 1.647-3.746 3.672v2.448H3.767a3.77 3.77 0 0 0-3.32 1.952 3.628 3.628 0 0 0 .186 3.79l4.711 6.927L8.27 52.6c.19.932.607 1.767 1.167 2.486H6.554c-2.065 0-3.746 1.648-3.746 3.673V71H45.26V58.759c0-2.025-1.68-3.673-3.746-3.673h-2.02c1.066-1.17 1.747-2.673 1.84-4.316l.27-1.805h8.65c2.065 0 3.746-1.647 3.746-3.672V22.034c0-2.024-1.68-3.672-3.745-3.672zm-34.96-14.69c0-.675.558-1.224 1.248-1.224h14.983c.689 0 1.248.549 1.248 1.225V6.12h-17.48V3.673zM9.05 9.794c0-.675.56-1.224 1.25-1.224h27.468c.689 0 1.249.549 1.249 1.224v2.448H9.05V9.793zm32.463 47.741c.69 0 1.25.548 1.25 1.225v9.793H5.304V58.76c0-.677.56-1.225 1.25-1.225h34.96zm-2.09-10.836l-.352 2.267h.014l-.232 1.556c-.15 2.56-2.314 4.565-4.929 4.565H14.41c-1.789 0-3.342-1.249-3.673-2.852l-2.972-28.18-5.054-7.431a1.197 1.197 0 0 1-.064-1.277 1.245 1.245 0 0 1 1.119-.658h37.149c.793 0 1.53.311 2.074.877.544.566.82 1.305.787 1.975l-4.352 29.157zm12.08-1.405c0 .675-.56 1.224-1.25 1.224H41.98l3.998-25.707h4.278c.69 0 1.248.549 1.248 1.224v23.259z"></path>
      <path d="M12 59c-2.206 0-4 2.019-4 4.5S9.794 68 12 68s4-2.019 4-4.5-1.794-4.5-4-4.5zm0 6.429c-.945 0-1.714-.865-1.714-1.929 0-1.063.77-1.928 1.714-1.928.945 0 1.714.865 1.714 1.928 0 1.064-.77 1.929-1.714 1.929zM32 63.5c0 2.481 1.794 4.5 4 4.5s4-2.019 4-4.5-1.794-4.5-4-4.5-4 2.019-4 4.5zm4-1.928c.945 0 1.714.865 1.714 1.928 0 1.064-.77 1.928-1.714 1.928-.945 0-1.714-.865-1.714-1.928s.77-1.928 1.714-1.928zM21 59c-.553 0-1 .575-1 1.286v6.428c0 .711.447 1.286 1 1.286.553 0 1-.575 1-1.286v-6.428c0-.711-.447-1.286-1-1.286zm6 0c-.553 0-1 .575-1 1.286v6.428c0 .711.447 1.286 1 1.286.553 0 1-.575 1-1.286v-6.428c0-.711-.447-1.286-1-1.286z"></path>
    </g>
  </symbol>
  <symbol viewBox="0 0 26 28" xmlns="http://www.w3.org/2000/svg" id="a-icon-white">
    <title>3071AD0D-5C24-4C97-AC9A-C378E34BD1A1</title>
    <path d="M25.858 27.105l-7.575-8.17a11.275 11.275 0 0 0 3.129-7.834C21.412 4.98 16.61 0 10.706 0S0 4.98 0 11.101c0 6.122 4.802 11.102 10.706 11.102 2.591 0 4.97-.96 6.823-2.554l7.594 8.189a.497.497 0 0 0 .72.015.543.543 0 0 0 .015-.748zm-15.152-5.96c-5.341 0-9.686-4.505-9.686-10.044 0-5.538 4.345-10.044 9.686-10.044s9.686 4.506 9.686 10.044c0 5.539-4.345 10.045-9.686 10.045z"
      fill="#FFF"></path>
  </symbol>
</svg>
